<svg xmlns="http://www.w3.org/2000/svg" viewBox="0 0 93.59 15.34"><path fill="white" d="M88.12,3.83A1.06,1.06,0,0,0,87,2.73a1.07,1.07,0,0,0-1.15,1.11h.56a.58.58,0,1,1,1.16,0,.78.78,0,0,1-.21.53L85.83,6.2v.5h2.29V6.2h-1.6l1.24-1.51A1.23,1.23,0,0,0,88.12,3.83ZM91,4.66a.86.86,0,0,0,.49-.84,1.08,1.08,0,0,0-1.15-1.1,1.09,1.09,0,0,0-1.16,1.07h.56a.59.59,0,0,1,1.17,0,.54.54,0,0,1-.6.6h-.09v.49h.09a.59.59,0,0,1,.66.65.61.61,0,0,1-.64.65.59.59,0,0,1-.64-.6h-.56a1.21,1.21,0,0,0,2.41,0A.93.93,0,0,0,91,4.66Zm-73.88,3a4.75,4.75,0,0,1-3.73,7.64H0V0H13.43a4.75,4.75,0,0,1,3.73,7.65Zm18.77,7.67L31,3.81l-4.9,11.53H22L28.5,0h5.09L40.1,15.34Zm26.16,0H44l3.27-7.67h4.16L49.76,11.5H62.1ZM62.1,0V0L58.85,7.66H54.69l1.62-3.82H44V0H62.1ZM79.89,15.34,75,3.81,70.1,15.34H65.94L72.45,0h5.09l6.51,15.34Zm8.92-5.77a4.78,4.78,0,1,1,4.78-4.78A4.78,4.78,0,0,1,88.81,9.57ZM13.5,9.6H3.83v1.92H13.5a1,1,0,0,0,.9-1A.94.94,0,0,0,13.5,9.6Zm0-5.76H3.83V5.76H13.5a1,1,0,0,0,.9-1A.93.93,0,0,0,13.5,3.84Z"/></svg>