<svg xmlns="http://www.w3.org/2000/svg" xmlns:xlink="http://www.w3.org/1999/xlink" viewBox="0 0 137.98 32.22"><defs><style>.cls-1{fill:none;}.cls-2{clip-path:url(#clip-path);}.cls-3{fill:url(#linear-gradient);}.cls-4{clip-path:url(#clip-path-2);}.cls-5{fill:url(#linear-gradient-2);}</style><clipPath id="clip-path"><path class="cls-1" d="M106,27.84h6.57V18.05c0-4.06,1-5.45,3.37-5.45,1.82,0,2.48,1.47,2.48,3.83V27.84H125V18c0-3.25.27-5.41,3.09-5.41,1.7,0,2.75,1.28,2.75,3.44v11.8h6.57v-12c0-3.83-.7-8.66-7.08-8.66A7.22,7.22,0,0,0,124,10.44C123,8,120.72,7.19,118.2,7.19a6.65,6.65,0,0,0-5.76,3.33h-.08V7.77H106Zm-17.25-10c0-2.55.93-5.61,4-5.61s4,3.06,4,5.61-.93,5.57-4,5.57S88.73,20.41,88.73,17.82Zm-6.57,0a10.58,10.58,0,1,0,21.16,0,10.58,10.58,0,1,0-21.16,0Zm-58.9,3.4c.19,5.61,5,7.2,9.82,7.2,4.52,0,9.63-1.79,9.63-7.16,0-1.66-1.08-4.6-5.11-5.41-3-.62-7.43-1-7.43-2.9,0-1.39,1.74-1.51,2.82-1.51a3.63,3.63,0,0,1,2.09.5,1.86,1.86,0,0,1,.85,1.74H42c-.19-5.22-4.87-6.5-9.24-6.5-3.95,0-9.17,1.35-9.17,6.15,0,5.41,5.18,5.53,9.32,6.57,1.12.31,3.21.54,3.21,2.13S34.28,24.17,33,24.17a4.12,4.12,0,0,1-2.44-.7,2.65,2.65,0,0,1-1.08-2.24ZM7.16,17.82c0-2.55.93-5.61,4-5.61s4,3.06,4,5.61-.93,5.57-4,5.57S7.16,20.41,7.16,17.82Zm-6.57,0a10.23,10.23,0,0,0,10.56,10.6,10.27,10.27,0,0,0,10.6-10.6A10.29,10.29,0,0,0,11.15,7.19,10.26,10.26,0,0,0,.59,17.82Z"/></clipPath><linearGradient id="linear-gradient" x1="2.04" y1="218.18" x2="2.76" y2="218.18" gradientTransform="matrix(0, -26.67, 154.55, 0, -33651.52, 82.17)" gradientUnits="userSpaceOnUse"><stop offset="0" stop-color="#5b2267"/><stop offset="0.28" stop-color="#73347d"/><stop offset="1" stop-color="#8b4a97"/></linearGradient><clipPath id="clip-path-2"><path class="cls-1" d="M61,27.84h6.57V21.42l1.7-1.66,4.91,8.08h7.93L73.8,15.35l7.35-7.58H73.53l-6,6.69V.22H61Zm.76-20.07H54V1.69H47.39V7.77H44.06V12h3.33V21c0,5.41,1.43,7.08,7,7.08,1.2,0,2.4-.15,3.6-.2V23c-.58,0-1.12.08-1.7.08-1.43,0-2.36-.35-2.36-1.93V12h7.76Z"/></clipPath><linearGradient id="linear-gradient-2" x1="1.75" y1="216.01" x2="2.61" y2="216.01" gradientTransform="matrix(0, -28.84, 41.06, 0, -8805.95, 77.31)" gradientUnits="userSpaceOnUse"><stop offset="0" stop-color="#e74d0e"/><stop offset="0.28" stop-color="#ef822d"/><stop offset="1" stop-color="#f9b44f"/></linearGradient></defs><title>logo</title><g class="cls-2"><rect class="cls-3" x="0.32" y="5.29" width="137.33" height="25.03" transform="translate(-0.47 1.92) rotate(-1.59)"/></g><g class="cls-4"><rect class="cls-5" x="43.98" y="0.11" width="38.18" height="28.04" transform="translate(-0.08 0.37) rotate(-0.34)"/></g></svg>