<?xml version="1.0" encoding="utf-8"?>
<!-- Generator: Adobe Illustrator 21.1.0, SVG Export Plug-In . SVG Version: 6.00 Build 0)  -->
<svg version="1.1" id="Layer_1" xmlns="http://www.w3.org/2000/svg" xmlns:xlink="http://www.w3.org/1999/xlink" x="0px" y="0px"
	 viewBox="0 0 101 87.28809" style="enable-background:new 0 0 101 87.28809;" xml:space="preserve">
<style type="text/css">
	.st0{fill:#A74DAD;}
	.st1{fill:#FFFFFF;}
	.st2{fill:#5D5D5D;}
</style>
<g>
	<rect x="3" y="3" class="st0" width="95" height="59.18164"/>
	<path class="st1" d="M85.86784,84.28451H70.66634c-0.86852,0-1.57259-0.70407-1.57259-1.57259V38.86068
		c0-0.86852,0.70407-1.57259,1.57259-1.57259h15.20149c0.86852,0,1.57259,0.70407,1.57259,1.57259v43.85124
		C87.44043,83.58044,86.73636,84.28451,85.86784,84.28451z"/>
	<path class="st2" d="M70.72559,87.28809c-2.5542,0-4.63184-2.07813-4.63184-4.63184V38.91992
		c0-2.55371,2.07764-4.63184,4.63184-4.63184h15.08301c2.5542,0,4.63184,2.07813,4.63184,4.63184v23.26172H98V3H3v59.18164h56.72559
		c0.82715,0,1.5,0.67285,1.5,1.5c0,0.77441-0.5874,1.41211-1.3667,1.48145L1.84961,65.15918v0.02246H1.5
		c-0.82715,0-1.5-0.67285-1.5-1.5V1.5C0,0.67285,0.67285,0,1.5,0h98c0.82715,0,1.5,0.67285,1.5,1.5v62.18164
		c0,0.82715-0.67285,1.5-1.5,1.5h-9.05957v17.47461c0,2.55371-2.07764,4.63184-4.63184,4.63184H70.72559z M70.72559,37.28809
		c-0.8999,0-1.63184,0.73242-1.63184,1.63184v43.73633c0,0.89941,0.73193,1.63184,1.63184,1.63184h15.08301
		c0.8999,0,1.63184-0.73242,1.63184-1.63184V38.91992c0-0.89941-0.73193-1.63184-1.63184-1.63184H70.72559z M14.34082,70.7959
		c0.43457-1.50781,1.82715-2.61426,3.47314-2.61426h41.94824c0.82715,0,1.5,0.58398,1.5,1.30176
		c0,0.7168-0.67285,1.30078-1.5,1.30078h-1.1875v0.01172H14.34082z"/>
	<path class="st2" d="M74.51451,48.93764h1.96777c0.82813,0,1.5-0.67139,1.5-1.5s-0.67188-1.5-1.5-1.5h-1.96777
		c-0.82813,0-1.5,0.67139-1.5,1.5S73.68639,48.93764,74.51451,48.93764z"/>
	<path class="st2" d="M74.51451,44.02992h1.96777c0.82813,0,1.5-0.67139,1.5-1.5s-0.67188-1.5-1.5-1.5h-1.96777
		c-0.82813,0-1.5,0.67139-1.5,1.5S73.68639,44.02992,74.51451,44.02992z"/>
	<path class="st2" d="M81.62779,77.16615h-6.41406c-0.82813,0-1.5,0.67139-1.5,1.5c0,0.82855,0.67188,1.5,1.5,1.5h6.41406
		c0.82813,0,1.5-0.67145,1.5-1.5C83.12779,77.83754,82.45592,77.16615,81.62779,77.16615z"/>
	<path class="st2" d="M80.35924,48.93764h1.96777c0.82813,0,1.5-0.67139,1.5-1.5s-0.67188-1.5-1.5-1.5h-1.96777
		c-0.82813,0-1.5,0.67139-1.5,1.5S79.53111,48.93764,80.35924,48.93764z"/>
	<path class="st2" d="M80.35924,44.02992h1.96777c0.82813,0,1.5-0.67139,1.5-1.5s-0.67188-1.5-1.5-1.5h-1.96777
		c-0.82813,0-1.5,0.67139-1.5,1.5S79.53111,44.02992,80.35924,44.02992z"/>
	<path class="st2" d="M81.62779,72.25844h-6.41406c-0.82813,0-1.5,0.67139-1.5,1.5s0.67188,1.5,1.5,1.5h6.41406
		c0.82813,0,1.5-0.67139,1.5-1.5S82.45592,72.25844,81.62779,72.25844z"/>
	<path class="st2" d="M81.62779,67.35121h-6.41406c-0.82813,0-1.5,0.67139-1.5,1.5s0.67188,1.5,1.5,1.5h6.41406
		c0.82813,0,1.5-0.67139,1.5-1.5S82.45592,67.35121,81.62779,67.35121z"/>
	<path class="st2" d="M78.63998,51.86971c-3.78906,0-6.87207,3.08252-6.87207,6.87164c0,3.78906,3.08301,6.87207,6.87207,6.87207
		s6.87207-3.08301,6.87207-6.87207C85.51205,54.95223,82.42904,51.86971,78.63998,51.86971z M78.63998,62.94674
		c-2.31854,0-4.20538-1.88635-4.20538-4.20544c0-2.3186,1.88684-4.20496,4.20538-4.20496c2.3186,0,4.20544,1.88635,4.20544,4.20496
		C82.84542,61.06039,80.95858,62.94674,78.63998,62.94674z"/>
</g>
</svg>
