<?xml version="1.0" encoding="utf-8"?>
<!-- Generator: Adobe Illustrator 21.1.0, SVG Export Plug-In . SVG Version: 6.00 Build 0)  -->
<svg version="1.1" id="Layer_1" xmlns="http://www.w3.org/2000/svg" xmlns:xlink="http://www.w3.org/1999/xlink" x="0px" y="0px"
	 viewBox="0 0 101 85.18164" style="enable-background:new 0 0 101 85.18164;" xml:space="preserve">
<style type="text/css">
	.st0{fill:#F1AF00;}
	.st1{fill:#FFFFFF;}
	.st2{fill:#5D5D5D;}
</style>
<rect x="3" y="13" class="st0" width="95" height="59.18164"/>
<rect x="22.57715" y="3" class="st1" width="24.42285" height="79.18164"/>
<g>
	<path class="st2" d="M64.52483,43.90576h-6.41406c-0.82813,0-1.5,0.67139-1.5,1.5s0.67188,1.5,1.5,1.5h6.41406
		c0.82813,0,1.5-0.67139,1.5-1.5S65.35295,43.90576,64.52483,43.90576z"/>
	<path class="st2" d="M76.89409,43.90576h-6.41406c-0.82813,0-1.5,0.67139-1.5,1.5s0.67188,1.5,1.5,1.5h6.41406
		c0.82813,0,1.5-0.67139,1.5-1.5S77.72221,43.90576,76.89409,43.90576z"/>
	<path class="st2" d="M89.26335,43.90576h-6.41406c-0.82813,0-1.5,0.67139-1.5,1.5s0.67188,1.5,1.5,1.5h6.41406
		c0.82813,0,1.5-0.67139,1.5-1.5S90.09148,43.90576,89.26335,43.90576z"/>
	<path class="st2" d="M64.52483,50.90576h-6.41406c-0.82813,0-1.5,0.67139-1.5,1.5s0.67188,1.5,1.5,1.5h6.41406
		c0.82813,0,1.5-0.67139,1.5-1.5S65.35295,50.90576,64.52483,50.90576z"/>
	<path class="st2" d="M76.89409,50.90576h-6.41406c-0.82813,0-1.5,0.67139-1.5,1.5s0.67188,1.5,1.5,1.5h6.41406
		c0.82813,0,1.5-0.67139,1.5-1.5S77.72221,50.90576,76.89409,50.90576z"/>
	<path class="st2" d="M89.26335,50.90576h-6.41406c-0.82813,0-1.5,0.67139-1.5,1.5s0.67188,1.5,1.5,1.5h6.41406
		c0.82813,0,1.5-0.67139,1.5-1.5S90.09148,50.90576,89.26335,50.90576z"/>
	<path class="st2" d="M64.52483,57.90576h-6.41406c-0.82813,0-1.5,0.67139-1.5,1.5s0.67188,1.5,1.5,1.5h6.41406
		c0.82813,0,1.5-0.67139,1.5-1.5S65.35295,57.90576,64.52483,57.90576z"/>
	<path class="st2" d="M76.89409,57.90576h-6.41406c-0.82813,0-1.5,0.67139-1.5,1.5s0.67188,1.5,1.5,1.5h6.41406
		c0.82813,0,1.5-0.67139,1.5-1.5S77.72221,57.90576,76.89409,57.90576z"/>
	<path class="st2" d="M89.26335,57.90576h-6.41406c-0.82813,0-1.5,0.67139-1.5,1.5s0.67188,1.5,1.5,1.5h6.41406
		c0.82813,0,1.5-0.67139,1.5-1.5S90.09148,57.90576,89.26335,57.90576z"/>
	<path class="st2" d="M21.07715,85.18164c-0.82715,0-1.5-0.67285-1.5-1.5V1.5c0-0.82715,0.67285-1.5,1.5-1.5H48.5
		C49.32715,0,50,0.67285,50,1.5V10h49.5c0.82715,0,1.5,0.67285,1.5,1.5v62.18164c0,0.82715-0.67285,1.5-1.5,1.5H50v8.5
		c0,0.82715-0.67285,1.5-1.5,1.5H21.07715z M22.57715,82.18164H47V3H22.57715V82.18164z M50,72.18164h48V34H50V72.18164z M50,31h48
		V13H50V31z M1.5,75.18164c-0.82715,0-1.5-0.67285-1.5-1.5V11.5C0,10.67285,0.67285,10,1.5,10h11.25586
		c0.82715,0,1.5,0.66797,1.5,1.48828s-0.67285,1.48828-1.5,1.48828H9.57715V13H3v59.18164h6.57715l3.17871,0.01172
		c0.82715,0,1.5,0.66797,1.5,1.48828s-0.67285,1.48828-1.5,1.48828H9.57715v0.01172H1.5z"/>
</g>
</svg>
