<?xml version="1.0" encoding="utf-8"?>
<!-- Generator: Adobe Illustrator 21.1.0, SVG Export Plug-In . SVG Version: 6.00 Build 0)  -->
<svg version="1.1" id="Layer_1" xmlns="http://www.w3.org/2000/svg" xmlns:xlink="http://www.w3.org/1999/xlink" x="0px" y="0px"
	 viewBox="0 0 138.20898 86.92529" style="enable-background:new 0 0 138.20898 86.92529;" xml:space="preserve">
<style type="text/css">
	.st0{fill:#A74DAD;}
	.st1{fill:#5D5D5D;}
	.st2{fill:#FFFFFF;}
</style>
<rect x="3" y="3" class="st0" width="95" height="59.18164"/>
<path class="st1" d="M63.36328,86.92529c-1.64551,0-3.03809-1.10596-3.47266-2.61377h78.31836
	c-0.43457,1.50781-1.82715,2.61377-3.47266,2.61377H63.36328z M62.50488,81.31152c-0.82715,0-1.5-0.67285-1.5-1.5V36.40918
	c0-0.82715,0.67285-1.5,1.5-1.5H98V3H3v59.18164h49.00586c0.82715,0,1.5,0.67041,1.5,1.49414s-0.67285,1.49365-1.5,1.49365h-1.1875
	v0.01221H1.65039L1.4668,65.17676C0.64453,65.1582,0,64.50146,0,63.68164V1.5C0,0.67285,0.67285,0,1.5,0h98
	c0.82715,0,1.5,0.67285,1.5,1.5v33.40918h34.59473c0.82715,0,1.5,0.67285,1.5,1.5v43.40234c0,0.82715-0.67285,1.5-1.5,1.5H62.50488z
	 M64.00488,78.31152h70.08984V37.90918H64.00488V78.31152z M12.58496,70.79541c0.43457-1.50781,1.82715-2.61377,3.47266-2.61377
	h35.94824c0.82715,0,1.5,0.58398,1.5,1.30127s-0.67285,1.30127-1.5,1.30127h-1.1875v0.01123H12.58496z"/>
<rect x="64.00488" y="37.90918" class="st2" width="70.08984" height="40.40234"/>
</svg>
