<svg xmlns="http://www.w3.org/2000/svg" xmlns:xlink="http://www.w3.org/1999/xlink"><symbol viewBox="0 0 8 14" id="icon-arrow-left" xmlns="http://www.w3.org/2000/svg"><path d="M.218 6.454L6.277.224a.73.73 0 0 1 1.054 0l.446.458a.78.78 0 0 1 0 1.083L2.689 6.997l5.094 5.237c.14.145.217.337.217.542a.775.775 0 0 1-.217.542l-.446.458a.73.73 0 0 1-1.054 0L.218 7.541A.774.774 0 0 1 0 6.997a.77.77 0 0 1 .218-.543z"/></symbol><symbol viewBox="0 0 8 14" id="icon-arrow-right" xmlns="http://www.w3.org/2000/svg"><path d="M7.782 6.454L1.722.224A.725.725 0 0 0 1.196 0c-.2 0-.387.079-.527.224L.223.682a.78.78 0 0 0 0 1.083l5.088 5.232-5.094 5.237a.775.775 0 0 0-.217.542c0 .205.077.397.217.542l.446.458a.73.73 0 0 0 1.054 0l6.065-6.235A.774.774 0 0 0 8 6.997a.77.77 0 0 0-.218-.543z"/></symbol><symbol viewBox="0 0 102 102" id="icon-bed-circle" xmlns="http://www.w3.org/2000/svg"><circle fill="#A74DAD" class="acst0" cx="51" cy="51" r="50"/><path fill="#fff" class="acst1" d="M75.84 56.22l-.005-.012-5.945-10.203V33.187c0-.656-.514-1.187-1.147-1.187H33.257c-.634 0-1.147.531-1.147 1.187v12.818l-5.945 10.203-.008.015c-.099.176-.157.38-.157.598v11.992c0 .656.513 1.187 1.147 1.187h7.22c.634 0 1.147-.531 1.147-1.187v-3.135h30.972v3.135c0 .656.513 1.187 1.147 1.187h7.22c.634 0 1.147-.531 1.147-1.187V56.82c0-.22-.059-.425-.16-.602zM34.405 34.373h33.192v10.774h-1.304c.364-.635.572-1.36.572-2.13V41.09c0-2.483-2.147-4.504-4.787-4.504h-5.982c-2.64 0-4.787 2.02-4.787 4.504v1.927c0 .77.208 1.495.572 2.13h-1.76c.363-.635.572-1.36.572-2.13V41.09c0-2.483-2.148-4.504-4.787-4.504h-5.983c-2.639 0-4.786 2.02-4.786 4.504v1.927c0 .77.207 1.496.57 2.13h-1.302V34.374zm30.166 6.717v1.927c0 1.174-1.118 2.13-2.493 2.13h-5.982c-1.375 0-2.493-.956-2.493-2.13V41.09c0-1.174 1.118-2.13 2.493-2.13h5.982c1.375 0 2.493.956 2.493 2.13zm-16.172 0v1.927c0 1.174-1.118 2.13-2.493 2.13h-5.982c-1.375 0-2.493-.956-2.493-2.13V41.09c0-1.174 1.118-2.13 2.493-2.13h5.982c1.375 0 2.493.956 2.493 2.13zm-14.494 6.431h34.191l4.727 8.112H29.178l4.726-8.112zm-.684 20.104h-4.926v-1.948h4.926v1.948zm40.486 0H68.78v-1.948h4.926v1.948zm0-4.322H28.294v-5.296h45.412v5.296z"/></symbol><symbol viewBox="0 0 102 102" id="icon-broom-circle" xmlns="http://www.w3.org/2000/svg"><circle fill="#A74DAD" cx="51" cy="51" r="50"/><path fill="#FFF" d="M75.75 81v-2.1H81V81h-5.25zm-16.78-1.24V81H42.18c-4.05 0-7.34-3.29-7.34-7.34V62.13h-1.05v-1.05c0-2.89 2.35-5.24 5.25-5.24h8.39V20.19c0-2.31 1.88-4.19 4.2-4.19 2.31 0 4.2 1.88 4.2 4.19v35.64h8.39c2.89 0 5.25 2.35 5.25 5.24v1.05h-1.05v11.53c0 2.89 2.35 5.24 5.25 5.24V81h-9.44c-1.96 0-3.76-.46-5.26-1.24zm-22.04-6.1c0 2.89 2.35 5.24 5.25 5.24h2.21a7.318 7.318 0 0 1-2.21-5.24V62.13h-5.25v11.53zm16.79-53.47a2.1 2.1 0 1 0-4.2 0v30.4h4.2v-30.4zm0 32.5h-4.2v3.15h4.2v-3.15zm10.49 5.25H39.03c-1.37 0-2.53.88-2.97 2.1h31.12a3.14 3.14 0 0 0-2.97-2.1zm2.1 15.72V62.13h-3.15v4.19h-2.1v-4.19H44.28v11.53c0 2.89 2.35 5.24 5.25 5.24h6.45c-.75-1.31-1.2-3.15-1.2-5.24h2.1c0 2.89 3.29 5.24 7.34 5.24h4.31a7.287 7.287 0 0 1-2.22-5.24zm-5.25-5.24h2.1v2.1h-2.1v-2.1zm-31.47 2.1a3.15 3.15 0 0 1-3.15-3.15c0-1.73 1.41-3.14 3.15-3.14s3.15 1.41 3.15 3.14c0 1.73-1.41 3.15-3.15 3.15zm0-4.2a1.05 1.05 0 1 0 0 2.1 1.05 1.05 0 0 0 0-2.1zm-3.15-11.53c-2.32 0-4.2-1.88-4.2-4.19 0-2.31 1.88-4.19 4.2-4.19 2.31 0 4.2 1.88 4.2 4.19 0 2.31-1.88 4.19-4.2 4.19zm0-6.29a2.1 2.1 0 1 0 0 4.2 2.1 2.1 0 0 0 0-4.2zm-4.19 16.77h2.1v2.1h-2.1v-2.1zm0 4.2h2.1c0 5.2 4.24 9.44 9.44 9.44V81C24.53 81 17 73.47 17 64.22h2.1c0 4.1 1.69 7.8 4.4 10.47-.8-1.57-1.25-3.34-1.25-5.22zM17 60.03h2.1v2.1H17v-2.1zm0-4.19h2.1v2.1H17v-2.1z"/></symbol><symbol viewBox="0 0 102 102" id="icon-businessman-circle" xmlns="http://www.w3.org/2000/svg"><circle fill="#A74DAD" class="aest0" cx="51" cy="51" r="50"/><path fill="#fff" class="aest1" d="M51.02 53.52c-4.01-.19-7.87-3.65-9.54-8.37-1.26.07-2.4-.84-2.6-2.12l-.66-4.25c-.17-1.12.43-2.19 1.41-2.65a8.05 8.05 0 0 1-.11-1.3v-1.57c0-4.45 3.62-8.07 8.08-8.07h.02c.38-.62 1.23-1.18 3.07-1.2 1.33.02 2.96.36 4.57.97.69.26 1.35.56 1.96.89 2.93 1.22 4.89 4.14 4.89 7.4v1.57c0 .44-.04.87-.11 1.3.38.18.71.45.96.79.4.54.56 1.2.45 1.86l-.66 4.25a2.508 2.508 0 0 1-2.3 2.11c-1.67 4.73-5.52 8.2-9.43 8.39zm-8.77-10.69c.49 0 .92.32 1.06.8 1.21 4.23 4.52 7.53 7.71 7.69 3.07-.15 6.38-3.44 7.59-7.65.15-.53.69-.87 1.23-.78l.39.06c.16.03.32-.09.34-.25l.66-4.25c.02-.14-.11-.32-.25-.34l-.48-.07a1.1 1.1 0 0 1-.88-1.43 5.9 5.9 0 0 0 .28-1.77v-1.57c0-2.37-1.42-4.49-3.63-5.41-.63-.33-1.2-.59-1.8-.81-2.85-1.08-4.72-.89-5.02-.63.02.31-.05.52-.26.74-.21.22-.46.26-.77.26h-.82c-3.24 0-5.87 2.63-5.87 5.86v1.57c0 .6.09 1.2.28 1.77a1.104 1.104 0 0 1-.88 1.43l-.48.07c-.16.03-.27.18-.25.34l.66 4.25c.02.16.18.27.34.25l.68-.1c.05-.03.11-.03.17-.03zM67.39 73.79h-7.54c-.61 0-1.1-.49-1.1-1.1s.49-1.1 1.1-1.1h7.54c.61 0 1.1.49 1.1 1.1s-.49 1.1-1.1 1.1z"/><path fill="#fff" class="aest1" d="M46.9 78c-.52 0-.97-.36-1.08-.87l-4.19-19.66c-3.3 1.56-9.37 2.87-11.36 3.27-1.51.31-4.05 1.4-4.05 3.56v1.19l1.25 11.25c.07.6-.37 1.15-.98 1.22-.6.07-1.15-.37-1.22-.98l-1.25-11.37L24 64.3c0-3.14 2.93-5.14 5.82-5.72 3.45-.7 9.81-2.25 11.8-3.62.14-.1.3-.16.47-.18l.15-.02c.59-.08 1.12.29 1.24.86l3.36 15.76 1.6-8.26-2.17-5.59c-.13-.34-.09-.72.12-1.02.21-.3.55-.48.91-.48h7.38c.36 0 .71.18.91.48.21.3.25.68.12 1.02l-2.17 5.59 1.55 8.23 3.41-15.74c.12-.57.66-.94 1.24-.86l.15.02c.17.02.33.09.47.18 1.99 1.38 8.35 2.92 11.8 3.62 2.9.59 5.82 2.58 5.82 5.72v1.19l-1.26 11.49c-.07.61-.61 1.05-1.22.98a1.11 1.11 0 0 1-.98-1.22l1.25-11.37-.01-1.07c0-2.16-2.55-3.26-4.05-3.56-1.99-.4-8.06-1.71-11.37-3.27l-4.27 19.66c-.07.52-.52.88-1.04.88h-.01a1.11 1.11 0 0 1-1.07-.9l-2.62-13.89c-.04-.2-.02-.41.06-.6l1.7-4.38h-4.15l1.7 4.38c.07.19.09.4.05.61l-2.7 13.89c-.1.51-.55.89-1.07.89h-.02z"/></symbol><symbol viewBox="0 0 102 102" id="icon-cable-circle" xmlns="http://www.w3.org/2000/svg"><circle fill="#A74DAD" class="afst0" cx="51" cy="51" r="50"/><path fill="#fff" class="afst1" d="M61.75 40.24V25.15c0-.63-.5-1.15-1.13-1.15H40.38c-.62 0-1.13.51-1.13 1.15v15.09c-1.31.47-2.25 1.75-2.25 3.24v12.07c0 2.78.51 5.5 1.53 8.09l3.05 7.77c.17.44.58.72 1.04.72H46v5.73c0 .63.5 1.15 1.13 1.15s1.13-.51 1.13-1.15v-5.73h4.5v5.73c0 .63.5 1.15 1.13 1.15S55 78.49 55 77.85v-5.73h3.38c.46 0 .87-.29 1.04-.72l3.05-7.77A22.14 22.14 0 0 0 64 55.54V43.48c0-1.49-.94-2.77-2.25-3.24zm0 15.31c0 2.49-.46 4.92-1.37 7.24l-2.77 7.05H43.39l-2.77-7.05c-.91-2.31-1.37-4.75-1.37-7.24v-8.63h2.33c.55 3.88 3.84 6.88 7.8 6.88h2.25c3.96 0 7.25-2.99 7.8-6.88h2.33v8.63h-.01zm-14.62-17.8H46v-4.58h9v4.58h-1.13c-.62 0-1.13.51-1.13 1.15v10.31c0 1.26-1.01 2.29-2.25 2.29s-2.25-1.03-2.25-2.29V38.9c.01-.64-.49-1.15-1.11-1.15zm14.62 6.88h-3.38c-.62 0-1.13.51-1.13 1.15 0 1.96-.97 3.69-2.45 4.73.12-.41.2-.84.2-1.29v-9.17h1.13c.62 0 1.13-.51 1.13-1.15v-6.88c0-.63-.5-1.15-1.13-1.15H44.88c-.62 0-1.13.51-1.13 1.15v6.88c0 .63.5 1.15 1.13 1.15H46v9.17c0 .45.08.88.2 1.29a5.74 5.74 0 0 1-2.45-4.73c0-.63-.5-1.15-1.13-1.15h-3.38v-1.15c0-.63.51-1.15 1.13-1.15.62 0 1.13-.51 1.13-1.15v-14.9h1.13v1.15c0 .63.5 1.15 1.13 1.15s1.13-.51 1.13-1.15v-1.15h2.25v1.15c0 .63.5 1.15 1.13 1.15s1.13-.51 1.13-1.15v-1.15h2.25v1.15c0 .63.5 1.15 1.13 1.15s1.13-.51 1.13-1.15v-1.15h2.25v1.15c0 .63.5 1.15 1.13 1.15.62 0 1.13-.51 1.13-1.15v-1.15h1.13v14.9c0 .63.5 1.15 1.13 1.15.62 0 1.13.51 1.13 1.15v1.15h-.06z"/></symbol><symbol viewBox="0 0 102 102" id="icon-cafe-circle" xmlns="http://www.w3.org/2000/svg"><circle fill="#A74DAD" class="agst0" cx="51" cy="51" r="50"/><path fill="#fff" class="agst1" d="M62.575 53.095h-7.473c-2.045 0-3.709 1.628-3.709 3.63v5.61c0 2.002 1.664 3.63 3.709 3.63h7.473c2.046 0 3.709-1.628 3.709-3.63v-5.61c0-2.002-1.663-3.63-3.709-3.63zm1.012 9.24c0 .55-.46.99-1.012.99h-7.473a1.004 1.004 0 0 1-1.011-.99v-5.61c0-.55.46-.99 1.011-.99h7.473c.562 0 1.012.451 1.012.99v5.61z"/><path fill="#fff" class="agst1" d="M78.5 42.899c0-.231-.056-.451-.18-.649L70.14 28.171a1.36 1.36 0 0 0-1.169-.671H33.019c-.483 0-.933.253-1.169.671l-8.17 14.08c-.113.197-.18.417-.18.648 0 3.157 1.944 5.863 4.72 7.062v23.22c0 .725.607 1.319 1.349 1.319H72.42c.742 0 1.349-.594 1.349-1.32V50.126c0-.055 0-.1-.012-.143 2.788-1.2 4.743-3.916 4.743-7.084zM33.805 30.151h34.378l6.395 11.01H27.422l6.383-11.01zM62.643 43.79c-.427 2.376-2.551 4.18-5.102 4.18s-4.675-1.804-5.103-4.18h10.205zm-13.07 0c-.427 2.376-2.551 4.18-5.102 4.18s-4.676-1.804-5.114-4.18h10.216zm-23.286 0h10.216c-.427 2.376-2.563 4.18-5.114 4.18-2.55.01-4.675-1.804-5.102-4.18zm19.87 28.07h-7.755V57.616c0-1.034.854-1.88 1.922-1.88h3.922c1.056 0 1.922.835 1.922 1.88V71.86h-.012zm24.915 0H48.853V57.616c0-2.486-2.067-4.52-4.618-4.52h-3.923c-2.54 0-4.618 2.023-4.618 4.52v14.255h-4.777V50.61c.158.01.315.01.472.01a7.926 7.926 0 0 0 6.54-3.41 7.926 7.926 0 0 0 6.542 3.41 7.941 7.941 0 0 0 6.54-3.41 7.92 7.92 0 0 0 6.53 3.41 7.905 7.905 0 0 0 6.53-3.41 7.926 7.926 0 0 0 6.54 3.41c.157 0 .303-.01.46-.01v21.25zm-.461-23.88c-2.551 0-4.675-1.803-5.102-4.179h10.215c-.438 2.365-2.562 4.18-5.113 4.18z"/></symbol><symbol viewBox="0 0 102 102" id="icon-calc-circle" xmlns="http://www.w3.org/2000/svg"><circle fill="#A74DAD" class="ahst0" cx="51" cy="51" r="50"/><path fill="#fff" class="ahst1" d="M68.38 78H33.62C32.18 78 31 76.78 31 75.29V26.72c0-1.5 1.18-2.72 2.62-2.72h34.76c1.45 0 2.62 1.22 2.62 2.72v48.57c0 1.49-1.18 2.71-2.62 2.71zM33.62 26.18c-.28 0-.52.25-.52.54v48.57c0 .29.24.53.52.53h34.76c.27 0 .52-.25.52-.53V26.72c0-.29-.24-.54-.52-.54H33.62z"/><path fill="#fff" class="ahst1" d="M41.51 52.96c-.58 0-1.05-.49-1.05-1.09v-8.94c0-.6.47-1.09 1.05-1.09s1.05.49 1.05 1.09v8.94c0 .61-.47 1.09-1.05 1.09z"/><path fill="#fff" class="ahst1" d="M45.82 48.49h-8.63c-.58 0-1.05-.49-1.05-1.09 0-.6.47-1.09 1.05-1.09h8.63c.58 0 1.05.49 1.05 1.09 0 .6-.47 1.09-1.05 1.09zM57.07 51.67c-.27 0-.54-.11-.74-.32-.41-.43-.41-1.12 0-1.54l6.1-6.32c.41-.43 1.08-.43 1.49 0 .41.43.41 1.12 0 1.54l-6.1 6.32c-.21.22-.48.32-.75.32zM44.56 71.4c-.27 0-.54-.11-.74-.32l-6.1-6.32c-.41-.43-.41-1.12 0-1.54.41-.43 1.08-.43 1.49 0l6.1 6.32c.41.43.41 1.12 0 1.54-.22.22-.49.32-.75.32z"/><path fill="#fff" class="ahst1" d="M38.46 71.4c-.27 0-.54-.11-.74-.32-.41-.43-.41-1.12 0-1.54l6.1-6.32c.41-.43 1.08-.43 1.49 0s.41 1.12 0 1.54l-6.1 6.32c-.22.22-.49.32-.75.32zM69.76 58.1H32.24c-.58 0-1.05-.49-1.05-1.09s.47-1.09 1.05-1.09h37.51c.58 0 1.05.49 1.05 1.09s-.46 1.09-1.04 1.09z"/><path fill="#fff" class="ahst1" d="M51 77.54c-.58 0-1.05-.49-1.05-1.09V37.57c0-.6.47-1.09 1.05-1.09.58 0 1.05.49 1.05 1.09v38.87c0 .61-.47 1.1-1.05 1.1zM64.78 65.84h-8.63c-.58 0-1.05-.49-1.05-1.09 0-.6.47-1.09 1.05-1.09h8.63c.58 0 1.05.49 1.05 1.09 0 .6-.47 1.09-1.05 1.09zM64.78 70.65h-8.63c-.58 0-1.05-.49-1.05-1.09s.47-1.09 1.05-1.09h8.63c.58 0 1.05.49 1.05 1.09s-.47 1.09-1.05 1.09z"/><path fill="#fff" fill-rule="evenodd" clip-rule="evenodd" class="ahst2" d="M56.36 43.22c-.4.42-.4 1.1 0 1.52.4.42 1.06.42 1.46 0 .4-.42.4-1.1 0-1.52-.4-.42-1.06-.42-1.46 0z"/><path fill="#fff" class="ahst1" d="M57.09 46.14c-.53 0-1.07-.21-1.48-.63-.81-.85-.81-2.22 0-3.06.39-.41.92-.63 1.48-.63.56 0 1.08.23 1.48.64.39.41.61.95.61 1.53 0 .58-.22 1.12-.61 1.53-.41.41-.94.62-1.48.62zm-.73-2.92l.74.77s.01-.01 0-.02l-.74-.75z"/><path fill="#fff" fill-rule="evenodd" clip-rule="evenodd" class="ahst2" d="M62.81 49.9c-.4.42-.4 1.1 0 1.52.4.42 1.06.42 1.46 0 .4-.42.4-1.1 0-1.52-.4-.42-1.06-.42-1.46 0z"/><path fill="#fff" class="ahst1" d="M63.54 52.82c-.56 0-1.08-.22-1.48-.63-.39-.41-.61-.95-.61-1.53 0-.58.22-1.12.61-1.53.81-.84 2.14-.84 2.95 0 .81.85.81 2.22 0 3.06-.39.41-.91.63-1.47.63zm-.73-2.92l.74.77c.01-.01 0-.02 0-.03l-.74-.74zM69.76 38.2H32.24c-.58 0-1.05-.49-1.05-1.09 0-.6.47-1.09 1.05-1.09h37.51c.58 0 1.05.49 1.05 1.09.01.6-.46 1.09-1.04 1.09z"/></symbol><symbol viewBox="0 0 102 102" id="icon-cart-circle" xmlns="http://www.w3.org/2000/svg"><circle fill="#A74DAD" class="aist0" cx="51" cy="51" r="50"/><path fill="#fff" class="aist1" d="M77.5 26.5h-4.667a3.508 3.508 0 0 0-3.322 2.419c-2.061.313-2.69 1.624-2.999 2.785l-1.116 4.195h-39.23c-.362 0-.704.17-.925.46-.22.29-.295.667-.201 1.02l1.25 4.7c.137.513.599.87 1.127.87h.98l2.895 10.88.01.03.016.052.022.057.016.04c.03.066.065.129.105.187l.007.009c.018.026.037.05.057.075l.017.02.054.058.024.023a1.123 1.123 0 0 0 .138.111l.03.022c.029.018.057.035.086.05.012.007.026.013.039.019l.056.026.042.017a1.546 1.546 0 0 0 .1.032c.025.007.052.014.078.019l.024.005c.04.007.078.012.118.015L59.8 56.933l-.657 2.467H34.295c-.644 0-1.167.526-1.167 1.175s.523 1.175 1.167 1.175h3.23l-.65 2.442a4.7 4.7 0 0 0-3.747 4.608c0 2.592 2.094 4.7 4.667 4.7h5.833a1.17 1.17 0 0 0 1.167-1.175 1.17 1.17 0 0 0-1.167-1.175h-1.794a4.695 4.695 0 0 0 .628-2.35 4.704 4.704 0 0 0-3.21-4.464l.688-2.586h14.453l.688 2.586a4.705 4.705 0 0 0-3.209 4.464c0 2.592 2.094 4.7 4.667 4.7h11.667a1.17 1.17 0 0 0 1.166-1.175 1.17 1.17 0 0 0-1.166-1.175h-7.628a4.694 4.694 0 0 0 .628-2.35 4.7 4.7 0 0 0-3.747-4.608l-.65-2.442h3.231c.037 0 .074-.002.111-.006.009 0 .018-.002.026-.003a1.108 1.108 0 0 0 .18-.037l.044-.013c.02-.006.037-.013.055-.02a1.197 1.197 0 0 0 .13-.059 1.264 1.264 0 0 0 .176-.117 1.412 1.412 0 0 0 .083-.072c.01-.008.018-.017.027-.026.019-.019.036-.039.053-.059l.017-.019c.022-.027.043-.055.063-.085l.013-.02c.014-.023.028-.045.04-.068.009-.015.016-.03.023-.045.008-.016.016-.031.023-.048a1.192 1.192 0 0 0 .057-.158l.005-.016 1.245-4.681.003-.011 3.522-13.237h.98c.528 0 .99-.357 1.127-.87l1.25-4.7c.095-.354.02-.73-.2-1.02-.221-.29-.563-.46-.926-.46h-.356l.955-3.587c.137-.515.23-.864.802-1.02a3.506 3.506 0 0 0 3.265 2.257H77.5c1.93 0 3.5-1.58 3.5-3.524 0-1.945-1.57-3.526-3.5-3.526zM40.128 68.8a2.344 2.344 0 0 1-2.327 2.35H37.792c-1.285-.002-2.33-1.055-2.33-2.35s1.045-2.349 2.33-2.35h.006a2.344 2.344 0 0 1 2.33 2.35zm18.744 0a2.344 2.344 0 0 1-2.327 2.35H56.536a2.344 2.344 0 0 1-2.33-2.35 2.344 2.344 0 0 1 2.33-2.35h.005a2.344 2.344 0 0 1 2.331 2.35zm4.023-23.5H49.79c-.644 0-1.166.526-1.166 1.175s.522 1.175 1.166 1.175h12.48L61.645 50H55.54c-.644 0-1.167.526-1.167 1.175s.523 1.175 1.167 1.175h5.48l-.606 2.275-27.08-2.204-2.52-9.471H63.52l-.625 2.35zm3.126-4.7H28.312l-.625-2.35h38.959l-.625 2.35zM77.5 31.2h-4.667c-.643 0-1.166-.527-1.166-1.175s.523-1.175 1.166-1.175H77.5c.643 0 1.167.527 1.167 1.175S78.143 31.2 77.5 31.2z"/><path fill="#fff" class="aist1" d="M45.241 47.65h.7a1.17 1.17 0 0 0 1.167-1.175A1.17 1.17 0 0 0 45.94 45.3h-.7c-.644 0-1.167.526-1.167 1.175s.523 1.175 1.167 1.175z"/></symbol><symbol viewBox="0 0 102 102" id="icon-chair-circle" xmlns="http://www.w3.org/2000/svg"><circle fill="#A74DAD" class="ajst0" cx="51" cy="51" r="50"/><path fill="#fff" class="ajst1" d="M69.83 77c-.5 0-.952-.32-1.124-.796l-2.28-6.31H35.564l-2.279 6.31A1.202 1.202 0 0 1 32.16 77c-.14 0-.28-.025-.412-.074-.62-.23-.94-.928-.713-1.555l1.979-5.478h-1.462c-1.622 0-2.941-1.336-2.941-2.98v-7.435l-.434-.211a5.079 5.079 0 0 1-1.396-.997c-2.374-2.405-2.375-6.32 0-8.726a7.219 7.219 0 0 1 5.17-2.164c.513 0 1.027.054 1.527.161l.924.198V34.117c0-5.027 4.037-9.117 9-9.117h15.186c4.963 0 9 4.09 9 9.117v13.625l.925-.2a7.312 7.312 0 0 1 1.535-.163c1.956 0 3.792.769 5.171 2.164 2.375 2.407 2.375 6.322 0 8.728a5.08 5.08 0 0 1-1.405 1l-.435.21v7.433c0 1.643-1.32 2.98-2.941 2.98h-1.462l1.978 5.477a1.22 1.22 0 0 1-.713 1.555c-.132.05-.27.074-.41.074zM33.166 56.2c.32 0 .62.126.846.355.227.23.351.534.351.858s-.125.628-.35.858a5.072 5.072 0 0 1-2.42 1.363l-.587.142v7.691h39.981v-7.692l-.587-.142a5.07 5.07 0 0 1-2.41-1.363c-.227-.229-.351-.533-.351-.857s.124-.628.35-.857a1.18 1.18 0 0 1 .847-.356c.32 0 .62.126.847.355.513.52 1.195.806 1.922.806s1.41-.286 1.922-.806a3.784 3.784 0 0 0 0-5.296 4.857 4.857 0 0 0-3.48-1.458 4.858 4.858 0 0 0-3.48 1.458 6.534 6.534 0 0 0-1.89 4.657l.022 1.616a1.211 1.211 0 0 1-1.017 1.213l-.033.005-.032.008c-.1.024-.192.036-.284.036H38.658c-.095 0-.19-.012-.292-.039l-.031-.008-.033-.005a1.214 1.214 0 0 1-1-1.21l.022-1.626a6.518 6.518 0 0 0-1.89-4.647 4.857 4.857 0 0 0-3.48-1.458 4.858 4.858 0 0 0-3.48 1.458 3.785 3.785 0 0 0 0 5.296c.514.52 1.196.806 1.923.806.727 0 1.41-.286 1.922-.806.227-.229.527-.355.847-.355zm10.236-28.775c-3.642 0-6.606 3.002-6.606 6.692v15.106l.331.32a8.974 8.974 0 0 1 2.585 6.073l.021.753h22.534l.022-.752a8.987 8.987 0 0 1 2.584-6.073l.092-.089.229-.228v-15.11c0-3.69-2.964-6.692-6.606-6.692H43.402z"/></symbol><symbol id="icon-clock-circle" viewBox="0 0 102 102" xmlns="http://www.w3.org/2000/svg"><style>.akst0{fill:#a74dad}.akst1{fill:#fff}</style><circle class="akst0" cx="51" cy="51" r="50"/><path class="akst1" d="M73.63 28.37C67.58 22.33 59.55 19 51 19s-16.58 3.33-22.63 9.37C22.33 34.42 19 42.45 19 51s3.33 16.58 9.37 22.63C34.42 79.67 42.45 83 51 83s16.58-3.33 22.63-9.37C79.67 67.58 83 59.55 83 51s-3.33-16.58-9.37-22.63zM51 80.45c-16.24 0-29.45-13.21-29.45-29.45S34.76 21.55 51 21.55 80.45 34.76 80.45 51 67.24 80.45 51 80.45z"/><path class="akst1" d="M51 24.03c-14.87 0-26.97 12.1-26.97 26.97S36.13 77.97 51 77.97 77.97 65.87 77.97 51 65.87 24.03 51 24.03zm21.76 38.06l-3.68-2.12a1.275 1.275 0 0 0-1.27 2.21l3.67 2.12a24.567 24.567 0 0 1-7.18 7.18l-2.12-3.67a1.275 1.275 0 0 0-2.21 1.27l2.12 3.68c-2.97 1.52-6.3 2.45-9.82 2.63v-4.25c0-.7-.57-1.27-1.27-1.27s-1.27.57-1.27 1.27v4.25c-3.52-.18-6.84-1.11-9.82-2.63l2.12-3.68a1.275 1.275 0 0 0-2.21-1.27l-2.12 3.67a24.567 24.567 0 0 1-7.18-7.18l3.67-2.12a1.275 1.275 0 0 0-1.27-2.21l-3.68 2.12c-1.52-2.97-2.45-6.3-2.63-9.82h4.25c.7 0 1.27-.57 1.27-1.27s-.57-1.27-1.27-1.27h-4.25c.18-3.52 1.11-6.84 2.63-9.82l3.68 2.12a1.287 1.287 0 0 0 1.75-.47c.35-.61.14-1.39-.47-1.74l-3.67-2.12c1.87-2.87 4.32-5.32 7.18-7.18l2.12 3.67c.24.41.66.64 1.11.64a1.275 1.275 0 0 0 1.11-1.91l-2.12-3.68c2.97-1.52 6.3-2.45 9.82-2.63v4.25c0 .7.57 1.27 1.27 1.27s1.27-.57 1.27-1.27v-4.25c3.52.18 6.84 1.11 9.82 2.63l-2.12 3.68a1.275 1.275 0 0 0 1.11 1.91c.44 0 .87-.23 1.11-.64l2.12-3.67c2.87 1.87 5.32 4.32 7.18 7.18l-3.67 2.12a1.275 1.275 0 0 0 .64 2.38c.22 0 .44-.06.64-.17l3.68-2.12c1.52 2.97 2.45 6.3 2.63 9.82h-4.25c-.7 0-1.27.57-1.27 1.27 0 .7.57 1.27 1.27 1.27h4.25c-.22 3.52-1.15 6.85-2.67 9.82z"/><path class="akst1" d="M52.27 47.45v-8.18c0-.7-.57-1.27-1.27-1.27s-1.27.57-1.27 1.27v8.18c-1.45.52-2.5 1.92-2.5 3.55 0 .93.34 1.78.89 2.43l-2.02 3.51a1.275 1.275 0 0 0 1.11 1.91c.44 0 .87-.23 1.11-.64l2.02-3.5A3.773 3.773 0 0 0 54.78 51a3.795 3.795 0 0 0-2.51-3.55zM51 52.22c-.67 0-1.22-.55-1.22-1.22 0-.67.55-1.22 1.22-1.22s1.22.55 1.22 1.22-.55 1.22-1.22 1.22zM51 33.79c-.7 0-1.27.57-1.27 1.27v.51c0 .7.57 1.27 1.27 1.27s1.27-.57 1.27-1.27v-.51c0-.7-.57-1.27-1.27-1.27z"/></symbol><symbol viewBox="0 0 15.642 15.642" id="icon-close" xmlns="http://www.w3.org/2000/svg"><path fill-rule="evenodd" d="M8.882 7.821l6.541-6.541A.75.75 0 1 0 14.362.219L7.821 6.76 1.28.22A.75.75 0 1 0 .219 1.281L6.76 7.822l-6.54 6.54a.75.75 0 0 0 1.06 1.061l6.541-6.541 6.541 6.541a.75.75 0 1 0 1.06-1.061l-6.54-6.541z"/></symbol><symbol id="icon-devices-circle" viewBox="0 0 102 102" xmlns="http://www.w3.org/2000/svg"><style>.amst0{fill:#a74dad}.amst1{fill:#fff}</style><circle class="amst0" cx="51" cy="51" r="50"/><path class="amst1" d="M76.2 50.07V29.64c0-2.56-2.09-4.64-4.67-4.64H30.47c-2.57 0-4.67 2.08-4.67 4.64v13.93a2.8 2.8 0 0 0-2.8 2.79v27.86a2.8 2.8 0 0 0 2.8 2.79h20.53a2.8 2.8 0 0 0 2.8-2.79h7.82c.88 0 1.69-.4 2.23-1.09.53-.7.71-1.58.48-2.42L57.82 64h5.31v10.21a2.8 2.8 0 0 0 2.8 2.79H76.2a2.8 2.8 0 0 0 2.8-2.79V52.86a2.8 2.8 0 0 0-2.8-2.79zM47.27 74.21c0 .51-.42.93-.93.93H25.8c-.51 0-.93-.42-.93-.93v-1.86h22.4v1.86zm0-3.71h-22.4V50.07h22.4V70.5zm0-22.29h-22.4v-1.86c0-.51.42-.93.93-.93h20.53c.51 0 .93.42.93.93v1.86zm10.59 22.97c.08.28.02.58-.16.81-.18.23-.45.36-.74.36h-7.82V70.5h8.54l.18.68zm-8.73-2.54V64h6.75l1.27 4.64h-8.02zm14-6.5h-14v-5.57h14v5.57zm0-9.28v1.86h-14v-8.36a2.8 2.8 0 0 0-2.8-2.79H27.67V29.64a2.8 2.8 0 0 1 2.8-2.79h41.07a2.8 2.8 0 0 1 2.8 2.79v20.43h-8.4c-1.55 0-2.81 1.25-2.81 2.79zm14 21.35c0 .51-.42.93-.93.93H65.93c-.51 0-.93-.42-.93-.93v-1.86h12.13v1.86zm0-3.71H65V56.57h12.13V70.5zm0-15.79H65v-1.86c0-.51.42-.93.93-.93H76.2c.51 0 .93.42.93.93v1.86z"/></symbol><symbol id="icon-dispatcher-circle" viewBox="0 0 102 102" xmlns="http://www.w3.org/2000/svg"><style>.anst0{fill:#a74dad}.anst1{fill:#fff}</style><circle class="anst0" cx="51" cy="51" r="50"/><path class="anst1" d="M73.86 43.7C73.86 31.13 63.63 21 51 21S28.14 31.13 28.14 43.64v.06c-5.08.28-9.14 4.47-9.14 9.56v1.13c0 5.32 4.34 9.62 9.71 9.62h.51l4.06 6.4c2.86 4.53 7.71 7.19 13.09 7.19h.8c.51 1.92 2.29 3.4 4.4 3.4 2.51 0 4.57-2.04 4.57-4.53s-2.06-4.53-4.57-4.53c-2.11 0-3.89 1.47-4.4 3.4h-.8c-4.57 0-8.74-2.32-11.14-6.17l-3.31-5.15h.8c1.26 0 2.29-1.02 2.29-2.26V45.91c0-1.25-1.03-2.26-2.29-2.26h-2.29c0-11.26 9.2-20.38 20.57-20.38s20.57 9.11 20.57 20.38h-2.29c-1.26 0-2.29 1.02-2.29 2.26v15.85c0 1.25 1.03 2.26 2.29 2.26h4c5.37 0 9.71-4.3 9.71-9.62v-1.13c.01-5.1-4.05-9.29-9.13-9.57zM51.57 74.21c1.26 0 2.29 1.02 2.29 2.26 0 1.25-1.03 2.26-2.29 2.26s-2.29-1.02-2.29-2.26a2.29 2.29 0 0 1 2.29-2.26zm-18.86-28.3v15.85h-4c-4.11 0-7.43-3.28-7.43-7.36v-1.13c0-4.08 3.31-7.36 7.43-7.36h4zm48 8.49c0 4.08-3.31 7.36-7.43 7.36h-4V45.91h4c4.11 0 7.43 3.28 7.43 7.36v1.13z"/><path class="anst1" d="M60.49 29.55c-.11-.06-.29-.17-.46-.28-.17-.11-.34-.23-.46-.28-.51-.34-1.26-.17-1.54.4s-.17 1.19.4 1.53c.11.06.29.17.46.28.17.11.34.23.51.28.17.11.4.17.57.17.4 0 .74-.17.97-.57.29-.51.12-1.19-.45-1.53zM51 26.66c-4.86 0-9.43 2.09-12.57 5.72-.4.45-.34 1.19.11 1.58.23.17.46.28.74.28.34 0 .63-.11.86-.4 2.74-3.11 6.69-4.92 10.86-4.92 1.03 0 2.06.11 3.09.34.63.11 1.2-.28 1.37-.85.17-.57-.29-1.19-.86-1.36-1.2-.28-2.4-.39-3.6-.39z"/></symbol><symbol viewBox="0 0 512 512" id="icon-enter" xmlns="http://www.w3.org/2000/svg"><path d="M373.333 277.333c-5.888 0-10.667 4.779-10.667 10.667v106.667c0 17.643-14.357 32-32 32h-96V98.005a45.98 45.98 0 0 0-27.925-42.325l-80.128-34.347h204.053c17.643 0 32 14.357 32 32V160c0 5.888 4.779 10.667 10.667 10.667S384 165.888 384 160V53.333C384 23.936 360.064 0 330.667 0h-256c-.853 0-1.621.299-2.432.491C70.635.32 69.035 0 67.392 0 42.005 0 21.333 20.672 21.333 46.059v367.936a45.98 45.98 0 0 0 27.925 42.325l121.173 51.947A45.808 45.808 0 0 0 188.607 512c25.387 0 46.059-20.672 46.059-46.059V448h96C360.064 448 384 424.064 384 394.667V288c0-5.888-4.779-10.667-10.667-10.667zm-160 188.608c0 13.632-11.093 24.725-24.725 24.725a24.66 24.66 0 0 1-9.749-1.984L57.664 436.736a24.729 24.729 0 0 1-14.997-22.741V46.059c0-13.632 11.093-24.725 24.725-24.725 3.371 0 6.656.661 9.749 2.005l121.195 51.925a24.729 24.729 0 0 1 14.997 22.741v367.936z"/><path d="M181.333 234.667c-5.888 0-10.667 4.779-10.667 10.667V288c0 5.888 4.779 10.667 10.667 10.667S192 293.888 192 288v-42.667c0-5.888-4.779-10.666-10.667-10.666zM490.091 221.184c-.107-.384-.085-.811-.235-1.195a10.316 10.316 0 0 0-2.453-3.627l-63.872-63.872c-4.16-4.16-10.923-4.16-15.083 0s-4.16 10.923 0 15.083l45.76 45.76H266.667c-5.888 0-10.667 4.779-10.667 10.667s4.779 10.667 10.667 10.667h187.584l-45.803 45.803c-4.16 4.16-4.16 10.923 0 15.083a10.716 10.716 0 0 0 15.083.022l64-64c.299-.299.405-.683.661-.981.619-.768 1.259-1.557 1.643-2.496.384-.917.469-1.899.576-2.859.064-.427.256-.811.256-1.237 0-1.005-.32-1.901-.576-2.818z"/></symbol><symbol viewBox="0 0 430.113 430.114" id="icon-facebook" xmlns="http://www.w3.org/2000/svg"><path d="M158.081 83.3v59.218h-43.385v72.412h43.385v215.183h89.122V214.936h59.805s5.601-34.721 8.316-72.685H247.54V92.74c0-7.4 9.717-17.354 19.321-17.354h48.557V.001h-66.021C155.878-.004 158.081 72.48 158.081 83.3z"/></symbol><symbol viewBox="0 0 458.25 293.21" id="icon-gplus" xmlns="http://www.w3.org/2000/svg"><title>icon-gplus.svg</title><path d="M160.78 176.85h71.59a91.1 91.1 0 0 1-86.45 60.71c-48.35-.36-88.33-39-90.2-87.35a90.91 90.91 0 0 1 151.94-71 9.86 9.86 0 0 0 13.41 0l26.3-24.75a9.83 9.83 0 0 0 0-14.29A146.06 146.06 0 0 0 149.52 0C68.7-1.55.57 64.72 0 145.56a146.6 146.6 0 0 0 293 9.29c.11-1 .19-33.65.19-33.65H160.78A9.82 9.82 0 0 0 151 131v36a9.82 9.82 0 0 0 9.78 9.85zM414.46 124.47V89.3a8.61 8.61 0 0 0-8.61-8.61h-29.6a8.61 8.61 0 0 0-8.61 8.61v35.17h-35.17a8.61 8.61 0 0 0-8.61 8.61v29.6a8.61 8.61 0 0 0 8.61 8.61h35.17v35.17a8.61 8.61 0 0 0 8.61 8.61h29.6a8.61 8.61 0 0 0 8.61-8.61v-35.17h35.17a8.61 8.61 0 0 0 8.61-8.61v-29.6a8.61 8.61 0 0 0-8.61-8.61z"/></symbol><symbol viewBox="0 0 102 102" id="icon-hourglass-circle" xmlns="http://www.w3.org/2000/svg"><circle fill="#A74DAD" class="arst0" cx="51" cy="51" r="50"/><path fill="#FFF" class="arst1" d="M75 23h-3v4h-5v10.22c0 2.7-1.34 5.21-3.59 6.71L52.8 51l10.61 7.07A8.048 8.048 0 0 1 67 64.78V75h5v4h3c.55 0 1 .45 1 1s-.45 1-1 1H27c-.55 0-1-.45-1-1s.45-1 1-1h3v-4h5V64.78c0-2.7 1.34-5.21 3.59-6.71L49.2 51l-10.61-7.07A8.048 8.048 0 0 1 35 37.22V27h-5v-4h-3c-.55 0-1-.45-1-1s.45-1 1-1h48c.55 0 1 .45 1 1s-.45 1-1 1zM32 77v2h38v-2H32zm7.7-17.26a6.05 6.05 0 0 0-2.7 5.04V75h28V64.78c0-2.03-1.01-3.92-2.7-5.04L51 52.2l-11.3 7.54zM37 37.22c0 2.03 1.01 3.92 2.7 5.04L51 49.8l11.3-7.53a6.05 6.05 0 0 0 2.7-5.04V27H37v10.22zM70 23H32v2h38v-2zM46 43.86c-.19 0-.38-.06-.55-.17l-4.64-3.09A4.057 4.057 0 0 1 39 37.22V35c0-.55.45-1 1-1s1 .45 1 1v2.22c0 .69.34 1.33.92 1.72l4.64 3.09c.46.31.58.93.28 1.39-.2.28-.52.44-.84.44zm10.55 15.31l4.64 3.09A4.07 4.07 0 0 1 63 65.64v2.22c0 .55-.45 1-1 1s-1-.45-1-1v-2.22c0-.69-.34-1.33-.92-1.71l-4.64-3.09a1.001 1.001 0 1 1 1.11-1.67z"/></symbol><symbol viewBox="0 0 169.063 169.063" id="icon-instagram" xmlns="http://www.w3.org/2000/svg"><path d="M122.406 0H46.654C20.929 0 0 20.93 0 46.655v75.752c0 25.726 20.929 46.655 46.654 46.655h75.752c25.727 0 46.656-20.93 46.656-46.655V46.655C169.063 20.93 148.133 0 122.406 0zm31.657 122.407c0 17.455-14.201 31.655-31.656 31.655H46.654C29.2 154.063 15 139.862 15 122.407V46.655C15 29.201 29.2 15 46.654 15h75.752c17.455 0 31.656 14.201 31.656 31.655v75.752z"/><path d="M84.531 40.97c-24.021 0-43.563 19.542-43.563 43.563 0 24.02 19.542 43.561 43.563 43.561s43.563-19.541 43.563-43.561c0-24.021-19.542-43.563-43.563-43.563zm0 72.123c-15.749 0-28.563-12.812-28.563-28.561 0-15.75 12.813-28.563 28.563-28.563s28.563 12.813 28.563 28.563c0 15.749-12.814 28.561-28.563 28.561zM129.921 28.251c-2.89 0-5.729 1.17-7.77 3.22a11.053 11.053 0 0 0-3.23 7.78c0 2.891 1.18 5.73 3.23 7.78 2.04 2.04 4.88 3.22 7.77 3.22 2.9 0 5.73-1.18 7.78-3.22 2.05-2.05 3.22-4.89 3.22-7.78 0-2.9-1.17-5.74-3.22-7.78-2.04-2.05-4.88-3.22-7.78-3.22z"/></symbol><symbol viewBox="0 0 43.856 43.856" id="icon-location" xmlns="http://www.w3.org/2000/svg"><path d="M21.936 0c3.809 0 7.285 1.555 9.777 4.063a13.807 13.807 0 0 1 4.063 9.793c0 3.873-2.492 8.539-4.666 12.619-.667 1.238-1.302 2.429-1.809 3.492l-6.365 13.254a1.117 1.117 0 0 1-2.016 0l-6.365-13.254c-.508-1.063-1.143-2.254-1.794-3.492-2.19-4.079-4.682-8.746-4.682-12.619 0-3.825 1.555-7.286 4.063-9.793A13.81 13.81 0 0 1 21.936 0zm0 7.063a6.776 6.776 0 0 1 6.777 6.793 6.77 6.77 0 0 1-1.984 4.794 6.765 6.765 0 0 1-4.793 1.984 6.831 6.831 0 0 1-4.809-1.984 6.767 6.767 0 0 1-1.984-4.794c0-1.889.762-3.587 1.984-4.809a6.831 6.831 0 0 1 4.809-1.984zm3.206 3.572a4.51 4.51 0 0 0-3.206-1.333 4.52 4.52 0 0 0-3.222 1.333 4.52 4.52 0 0 0-1.333 3.222 4.51 4.51 0 0 0 1.333 3.206 4.52 4.52 0 0 0 3.222 1.333 4.51 4.51 0 0 0 3.206-1.333 4.51 4.51 0 0 0 1.333-3.206 4.511 4.511 0 0 0-1.333-3.222zm5-4.984c-2.111-2.111-5-3.413-8.206-3.413a11.524 11.524 0 0 0-8.206 3.413 11.524 11.524 0 0 0-3.413 8.206c0 3.333 2.349 7.714 4.412 11.571.667 1.254 1.302 2.46 1.841 3.571l5.365 11.158 5.349-11.158c.54-1.111 1.175-2.317 1.841-3.571 2.063-3.857 4.412-8.238 4.412-11.571a11.567 11.567 0 0 0-3.395-8.206z"/></symbol><symbol viewBox="0 0 35 55" id="icon-location-filled" xmlns="http://www.w3.org/2000/svg"><path d="M17.5 55S0 27.51 0 17.722 7.835 0 17.5 0 35 7.934 35 17.722 17.5 55 17.5 55zm0-44c-3.666 0-6.638 3.009-6.638 6.722 0 3.713 2.972 6.722 6.638 6.722s6.638-3.009 6.638-6.722c0-3.713-2.972-6.722-6.638-6.722z"/></symbol><symbol viewBox="0 0 102 102" id="icon-manager-circle" xmlns="http://www.w3.org/2000/svg"><circle fill="#A74DAD" class="avst0" cx="51" cy="51" r="50"/><path fill="#fff" class="avst1" d="M70.03 67.78l-10.94-4.5c-.49-.2-.8-.67-.8-1.19V59.8l2.05-1.12A5.966 5.966 0 0 0 63.43 54v-.05h1.07c1.99 0 3.6-1.6 3.6-3.56V48.2c.32-.77 1.23-3.23 1.23-6.62 0-4.69-1.86-9.11-5.24-12.46a18.115 18.115 0 0 0-4.34-3.17C59.68 22.11 55.78 19 51 19c-4.78 0-8.68 3.11-8.74 6.95a17.92 17.92 0 0 0-4.34 3.17c-3.38 3.35-5.24 7.77-5.24 12.46 0 3.39.9 5.85 1.23 6.62v2.19c0 1.96 1.62 3.56 3.6 3.56h1.07V54a5.966 5.966 0 0 0 3.09 4.68l2.05 1.12v2.29c0 .52-.31.99-.8 1.19l-10.94 4.5a4.743 4.743 0 0 0-2.97 4.4v7.26C29 81.4 30.62 83 32.6 83h36.8c1.99 0 3.6-1.6 3.6-3.56v-7.26c0-1.93-1.17-3.65-2.97-4.4zm-4.24-17.39c0 .71-.58 1.29-1.3 1.29h-.86l.46-4.99h.4c.72 0 1.3.58 1.3 1.29v2.41zM51 21.27c3.01 0 5.55 1.54 6.25 3.61-1.97-.68-4.08-1.04-6.25-1.04s-4.28.36-6.25 1.04c.7-2.07 3.24-3.61 6.25-3.61zM37.51 51.68c-.72 0-1.3-.58-1.3-1.29v-2.42c0-.71.58-1.29 1.3-1.29h.4l.46 4.99h-.86zm5.28 5.02c-1.09-.6-1.8-1.68-1.92-2.9L40 44.29c1.5-.01 4.14-.14 7.23-.77 6.31-1.29 11.45-4.1 14.88-8.14.41-.48.34-1.2-.14-1.6-.49-.4-1.21-.34-1.62.14C52.86 42.73 39 42.01 38.81 42h-.18c-.63.06-1.1.61-1.04 1.23l.11 1.18h-.19c-.81 0-1.55.26-2.15.7-.21-.96-.38-2.16-.38-3.54 0-4.08 1.62-7.94 4.57-10.86 3.01-2.98 7.08-4.62 11.45-4.62 4.38 0 8.44 1.64 11.45 4.62 2.95 2.92 4.57 6.77 4.57 10.86 0 1.38-.17 2.58-.38 3.54-.6-.44-1.34-.7-2.15-.7h-.19l.11-1.18c.03-.34-.09-.67-.33-.91l-2.45-2.42c-.45-.44-1.18-.44-1.63 0-.45.44-.45 1.16 0 1.6l2.07 2.05-.82 8.89c-.94.82-3.92 2.87-10.25 2.87-.64 0-1.15.51-1.15 1.13s.51 1.13 1.15 1.13c4.4 0 7.41-.91 9.37-1.87-.31.4-.7.74-1.16.99l-6.39 3.5a3.76 3.76 0 0 1-3.65 0l-6.38-3.49zm1.01 8.68a3.537 3.537 0 0 0 2.22-3.28v-1.03l2.04 1.12c.92.5 1.93.76 2.94.76s2.02-.25 2.94-.76l2.04-1.12v1.03c0 1.44.87 2.73 2.22 3.28l1.21.5c-2.16 2.47-4.24 3.7-5.65 4.3-1.56.66-2.64.72-2.75.72-.11 0-1.19-.06-2.75-.72-1.41-.6-3.5-1.83-5.65-4.3l1.19-.5zm-7.44 15.35H32.6c-.72 0-1.3-.58-1.3-1.29v-7.26c0-.31.06-.62.17-.9l3.94 3.11c.6.48.95 1.19.95 1.95v4.39zm26.98-4.38v4.38H38.66v-4.38c0-1.46-.66-2.81-1.81-3.72l-3.66-2.89 7.18-2.95c3.79 4.62 7.62 5.9 9.48 6.25v3.84c0 .63.51 1.13 1.15 1.13.64 0 1.15-.51 1.15-1.13v-3.84c1.86-.35 5.69-1.62 9.48-6.25l7.18 2.95-3.66 2.89a4.714 4.714 0 0 0-1.81 3.72zm6.06 4.38h-3.76v-4.38c0-.76.35-1.47.95-1.95l3.94-3.11c.11.28.17.58.17.9v7.26c0 .7-.58 1.28-1.3 1.28zM49.58 47.48c-.55-1.13-1.87-1.85-3.38-1.85-1.5 0-2.83.73-3.38 1.85-.28.56-.04 1.24.54 1.51.57.27 1.26.03 1.54-.53.13-.28.64-.57 1.3-.57.67 0 1.17.29 1.3.57.2.41.61.64 1.04.64.17 0 .34-.04.5-.11.58-.27.82-.94.54-1.51zM52.95 49c.57.27 1.26.03 1.53-.53.13-.28.64-.57 1.3-.57.67 0 1.17.29 1.3.57.2.41.61.64 1.04.64.17 0 .34-.04.5-.11.57-.27.81-.95.54-1.51-.55-1.13-1.87-1.85-3.38-1.85-1.5 0-2.83.73-3.38 1.85-.26.56-.02 1.23.55 1.51z"/></symbol><symbol viewBox="0 0 36.06738 36.06641" id="icon-office" xmlns="http://www.w3.org/2000/svg"><path class="awst0" d="M35.348 36.066H.72a.72.72 0 0 1 0-1.44h34.628a.72.72 0 0 1 0 1.44z"/><path class="awst0" d="M24.788 36.066a.72.72 0 0 1-.72-.72V1.44H4.388v33.908a.72.72 0 0 1-1.439 0V.72A.72.72 0 0 1 3.67 0h21.12a.72.72 0 0 1 .719.72v34.627a.72.72 0 0 1-.72.72z"/><path class="awst0" d="M32.398 35.068a.72.72 0 0 1-.72-.72V7.218h-6.42a.72.72 0 0 1 0-1.44h7.14a.72.72 0 0 1 .72.72V34.35a.72.72 0 0 1-.72.72zM16.175 35.634a.72.72 0 0 1-.72-.72v-2.428h-2.453v2.428a.72.72 0 0 1-1.44 0v-3.147a.72.72 0 0 1 .72-.72h3.893a.72.72 0 0 1 .72.72v3.147a.72.72 0 0 1-.72.72zM21.628 5.151H6.829a.72.72 0 0 1 0-1.44h14.799a.72.72 0 0 1 0 1.44z"/><path class="awst0" d="M28.463 13.354a.72.72 0 0 1-.72-.72v-1.79a.72.72 0 0 1 1.44 0v1.79a.72.72 0 0 1-.72.72zM28.463 19.39a.72.72 0 0 1-.72-.72v-1.79a.72.72 0 0 1 1.44 0v1.79a.72.72 0 0 1-.72.72zM28.463 25.428a.72.72 0 0 1-.72-.72v-1.791a.72.72 0 0 1 1.44 0v1.791a.72.72 0 0 1-.72.72zM28.463 31.465a.72.72 0 0 1-.72-.72v-1.79a.72.72 0 0 1 1.44 0v1.79a.72.72 0 0 1-.72.72zM21.628 8.654H6.829a.72.72 0 0 1 0-1.44h14.799a.72.72 0 0 1 0 1.44zM21.628 12.157H6.829a.72.72 0 0 1 0-1.44h14.799a.72.72 0 0 1 0 1.44zM21.628 15.66H6.829a.72.72 0 0 1 0-1.44h14.799a.72.72 0 0 1 0 1.44zM21.628 19.163H6.829a.72.72 0 0 1 0-1.44h14.799a.72.72 0 0 1 0 1.44zM21.628 22.666H6.829a.72.72 0 0 1 0-1.44h14.799a.72.72 0 0 1 0 1.44zM21.628 26.169H6.829a.72.72 0 0 1 0-1.44h14.799a.72.72 0 0 1 0 1.44zM21.628 29.672H6.829a.72.72 0 0 1 0-1.44h14.799a.72.72 0 0 1 0 1.44zM9.472 33.226H6.737a.72.72 0 0 1 0-1.44h2.735a.72.72 0 0 1 0 1.44zM21.628 33.226h-2.734a.72.72 0 0 1 0-1.44h2.734a.72.72 0 0 1 0 1.44z"/></symbol><symbol viewBox="0 0 102 102" id="icon-office-chair-circle" xmlns="http://www.w3.org/2000/svg"><circle fill="#A74DAD" class="axst0" cx="51" cy="51" r="50"/><path fill="#fff" class="axst1" d="M63.65 78c-1.75 0-3.17-1.41-3.17-3.15 0-1.02.49-1.93 1.25-2.51-.56-.82-1.33-1.56-2.32-2.21-1.08-.71-2.34-1.27-3.74-1.66-1.14-.32-2.34-.52-3.57-.59v4.01c1.2.45 2.06 1.6 2.06 2.96 0 1.74-1.42 3.15-3.16 3.15-1.75 0-3.17-1.41-3.17-3.15 0-1.35.86-2.51 2.07-2.96v-4.01c-1.23.07-2.43.27-3.57.59-1.41.39-2.67.95-3.74 1.66-.99.65-1.77 1.39-2.32 2.21.76.58 1.25 1.49 1.25 2.51 0 1.74-1.42 3.15-3.17 3.15-1.74 0-3.16-1.41-3.16-3.15 0-1.68 1.32-3.05 2.97-3.15.02-.14.08-.27.16-.4.72-1.13 1.75-2.14 3.06-3 1.27-.84 2.74-1.49 4.37-1.95 1.33-.37 2.73-.6 4.16-.67v-4.66H39.69c-.21 0-.43-.02-.63-.06-.06.02-.12.03-.18.03-.11.01-.37.02-2.28.03h-.42c-1.33.02-2.42-.36-3.22-1.15-1.69-1.67-1.65-4.69-1.61-7.61.03-2.17.06-4.62-.78-5.45-.16-.16-.47-.38-1.15-.34l-3.29.1c-.6.03-1.11-.46-1.13-1.06-.02-.61.46-1.11 1.07-1.13l3.29-.1c1.11-.03 2.06.29 2.75.97 1.52 1.48 1.48 4.18 1.44 7.04-.03 2.35-.07 5 .96 6.02.37.36.91.51 1.63.52h.45c-.12-.34-.18-.7-.18-1.07v-1.34c0-1.8 1.47-3.27 3.28-3.27H49.9v-1.11-.09h-4.21c-3.12 0-6.29-1.46-8.26-3.82-1.59-1.9-2.24-4.19-1.83-6.45l2.11-11.54c.68-3.73 3.17-6.14 6.34-6.14h13.9c3.17 0 5.66 2.41 6.34 6.14l2.11 11.54c.41 2.25-.24 4.54-1.83 6.44-1.97 2.36-5.14 3.82-8.26 3.82H52.1V53.14h10.21a3.28 3.28 0 0 1 3.28 3.27v1.34c0 .38-.06.74-.18 1.07h.45c.71-.01 1.27-.16 1.63-.52 1.03-1.02.99-3.68.96-6.02-.04-2.86-.08-5.56 1.44-7.04.69-.68 1.64-1.01 2.76-.97l3.29.1c.61.02 1.09.52 1.07 1.13-.02.6-.52 1.05-1.13 1.06l-3.29-.1c-.72-.03-.99.19-1.15.34-.84.83-.81 3.28-.78 5.45.04 2.92.08 5.93-1.61 7.61-.8.79-1.9 1.16-3.23 1.15h-.41c-1.91-.01-2.17-.02-2.28-.03l-.18-.03c-.2.04-.41.06-.63.06H52.1v4.66c1.44.08 2.83.3 4.16.67 1.63.45 3.1 1.11 4.37 1.95 1.3.86 2.33 1.87 3.05 3 .08.12.13.26.16.4 1.66.1 2.97 1.47 2.97 3.15A3.16 3.16 0 0 1 63.65 78zm0-4.11c-.53 0-.97.43-.97.96s.43.96.97.96a.96.96 0 0 0 0-1.92zm-12.65 0c-.53 0-.97.43-.97.96s.43.96.97.96a.96.96 0 0 0 0-1.92zm-12.65 0a.96.96 0 0 0 0 1.92c.53 0 .97-.43.97-.96s-.44-.96-.97-.96zM51 58.82h11.31c.6 0 1.08-.48 1.08-1.07v-1.34c0-.59-.48-1.08-1.08-1.08H39.69c-.6 0-1.08.48-1.08 1.08v1.34c0 .59.48 1.07 1.08 1.07H51zm-6.95-32.63c-2.5 0-3.81 2.34-4.17 4.34l-2.11 11.54c-.38 2.06.53 3.66 1.36 4.65 1.57 1.87 4.08 3.03 6.57 3.03h10.62c2.49 0 5-1.16 6.57-3.04.83-.99 1.73-2.59 1.35-4.65l-2.11-11.54c-.37-2-1.68-4.34-4.17-4.34H44.05z"/></symbol><symbol id="icon-paper-circle" viewBox="0 0 102 102" xmlns="http://www.w3.org/2000/svg"><style>.ayst0{fill:#a74dad}.ayst1{fill:#fff}</style><circle fill="#A74DAD" class="ayst0" cx="51" cy="51" r="50"/><path fill="#fff" class="ayst1" d="M66.06 76H35.94C34.32 76 33 74.7 33 73.11V28.89c0-1.6 1.32-2.89 2.94-2.89h20.07c.62 0 1.12.49 1.12 1.1 0 .61-.5 1.1-1.12 1.1H35.94c-.39 0-.71.31-.71.7v44.21c0 .37.33.7.71.7h30.12c.37 0 .71-.33.71-.7V38.8c0-.61.5-1.1 1.12-1.1.62 0 1.12.49 1.12 1.1v34.31C69 74.68 67.65 76 66.06 76z"/><path fill="#fff" class="ayst1" d="M67.88 39.9H57.83c-1.62 0-2.94-1.3-2.94-2.89v-9.9c0-.44.27-.85.69-1.01.42-.17.9-.08 1.21.24l11.88 11.7c.32.31.41.79.24 1.2s-.57.66-1.03.66zM57.12 29.75V37c0 .38.32.7.71.7h7.36l-8.07-7.95zM51 37.81h-9.6c-.62 0-1.12-.49-1.12-1.1 0-.61.5-1.1 1.12-1.1H51c.62 0 1.12.49 1.12 1.1-.01.61-.51 1.1-1.12 1.1zM60.6 46.76H41.4c-.62 0-1.12-.49-1.12-1.1s.5-1.1 1.12-1.1h19.2c.62 0 1.12.49 1.12 1.1s-.5 1.1-1.12 1.1zM60.6 51.99H41.4c-.62 0-1.12-.49-1.12-1.1 0-.61.5-1.1 1.12-1.1h19.2c.62 0 1.12.49 1.12 1.1 0 .6-.5 1.1-1.12 1.1zM60.6 57.21H41.4c-.62 0-1.12-.49-1.12-1.1s.5-1.1 1.12-1.1h19.2c.62 0 1.12.49 1.12 1.1s-.5 1.1-1.12 1.1zM51 62.43h-9.6c-.62 0-1.12-.49-1.12-1.1 0-.61.5-1.1 1.12-1.1H51c.62 0 1.12.49 1.12 1.1-.01.61-.51 1.1-1.12 1.1z"/></symbol><symbol viewBox="0 0 34 58" id="icon-phone" xmlns="http://www.w3.org/2000/svg"><path d="M4.701 58C2.11 58 0 55.847 0 53.201V4.8C0 2.153 2.109 0 4.701 0h24.597C31.891 0 34 2.153 34 4.799V53.2C34 55.847 31.891 58 29.298 58H4.701zM2.32 53.201c0 1.341 1.069 2.432 2.382 2.432h24.597c1.314 0 2.383-1.091 2.383-2.432V47.61H2.319V53.2zm0-7.367h29.362V11.57H2.319v34.265zM4.701 2.367C3.388 2.367 2.32 3.458 2.32 4.8v4.995h29.362V4.799c0-1.34-1.07-2.432-2.383-2.432H4.701zm10.074 50.14a.88.88 0 0 1-.87-.888c0-.49.39-.888.87-.888h4.45c.48 0 .87.399.87.888a.88.88 0 0 1-.87.888h-4.45zm-2.572-45.39c-.48 0-.87-.399-.87-.888s.39-.888.87-.888h9.594c.48 0 .87.398.87.888s-.39.888-.87.888h-9.594z"/></symbol><symbol viewBox="0 0 102 102" id="icon-protect-circle" xmlns="http://www.w3.org/2000/svg"><circle fill="#A74DAD" cx="51" cy="51" r="50"/><g fill="#FFF"><path d="M51 76.5c-.15 0-.29-.03-.43-.08-13.61-5.43-22.07-15.7-22.07-26.8 0-2.84.02-5.69.04-8.54.02-2.85.04-5.69.04-8.54a1 1 0 0 1 .71-.94c.43-.15.91-.03 1.21.29 2.8 1.68 38.21 1.68 41.1-.07.3-.32.74-.4 1.16-.26.43.14.67.56.67.98 0 2.84.02 5.69.04 8.54.02 2.85.04 5.7.04 8.54 0 11.1-8.46 21.36-22.07 26.8-.15.05-.29.08-.44.08zM30.75 33.98c-.01 2.37-.02 4.74-.04 7.11-.02 2.84-.04 5.69-.04 8.53 0 10.17 7.77 19.63 20.32 24.78 12.55-5.15 20.32-14.61 20.32-24.78 0-2.84-.02-5.68-.04-8.53-.02-2.37-.03-4.74-.04-7.11-4.24.96-14.04 1.13-20.25 1.13s-15.99-.17-20.23-1.13z"/><path d="M50.29 60.62c-.32 0-.62-.13-.82-.35l-8.29-8.85c-.39-.42-.34-1.05.11-1.42.46-.36 1.14-.32 1.54.1l7.35 7.84 10.93-15.4c.33-.46 1-.59 1.51-.29.5.3.64.93.32 1.39L51.2 60.17c-.19.26-.5.43-.84.45h-.07z"/></g></symbol><symbol viewBox="0 0 102 102" id="icon-puzzle-circle" xmlns="http://www.w3.org/2000/svg"><circle fill="#A74DAD" class="bbst0" cx="51" cy="51" r="50"/><path fill="#fff" class="bbst1" d="M73.31 77H28.69A3.7 3.7 0 0 1 25 73.31V28.69c0-2.04 1.66-3.69 3.69-3.69H73.3c2.04 0 3.69 1.66 3.69 3.69V73.3c.01 2.04-1.65 3.7-3.68 3.7zm-21.22-2.18h21.22c.83 0 1.51-.68 1.51-1.51V52.09H67.4c-.05.15-.07.3-.07.46.01.41.21.66.78 1.25.82.86 1.95 2.04 1.95 4.59 0 3.64-2.96 6.6-6.6 6.6-3.64 0-6.6-2.96-6.6-6.6 0-2.23.95-3.42 1.65-4.28.51-.64.76-.97.75-1.5 0-.11-.05-.3-.16-.52h-7v6.98c0 .24-.08.48-.23.67-.62.8-1.92 1.66-3.08 1.69-1.34-.01-2.19-.64-2.92-1.23-.78-.63-1.45-1.17-2.92-1.17-2.44 0-4.42 1.98-4.42 4.42s1.98 4.42 4.42 4.42c1.67 0 2.32-.62 3.08-1.34.63-.6 1.41-1.35 2.7-1.38 1.53.03 2.9.9 3.32 2.29.03.1.05.21.05.32v7.06zM27.18 52.09v21.22c0 .83.68 1.51 1.51 1.51h21.22v-6.87c-.18-.39-.61-.6-1.14-.63-.41.01-.66.21-1.25.78-.86.82-2.04 1.95-4.59 1.95-3.64 0-6.6-2.96-6.6-6.6 0-3.64 2.96-6.6 6.6-6.6 2.23 0 3.42.95 4.28 1.65.64.51.91.74 1.5.75.3-.01.83-.29 1.19-.61v-6.55h-7.6c-.35 0-.67-.17-.88-.45-.31-.42-.83-1.27-.85-2.2-.03-1.35.64-2.18 1.23-2.92.63-.78 1.17-1.45 1.17-2.92 0-2.44-1.98-4.42-4.42-4.42s-4.42 1.98-4.42 4.42c0 1.67.62 2.32 1.34 3.08.6.63 1.35 1.41 1.38 2.7.02.85-.26 1.67-.78 2.3-.21.25-.51.4-.84.4h-8.05zm24.91-2.18h7.61c.35 0 .68.17.88.45.31.42.83 1.27.85 2.2.03 1.35-.64 2.18-1.23 2.92-.63.78-1.17 1.45-1.17 2.92 0 2.44 1.98 4.42 4.42 4.42s4.42-1.98 4.42-4.42c0-1.67-.62-2.32-1.34-3.08-.6-.63-1.35-1.41-1.38-2.7-.02-.85.26-1.67.78-2.3.21-.25.52-.4.84-.4h8.05V28.69c0-.83-.68-1.51-1.51-1.51H52.09v6.87c.18.38.66.64 1.14.62.41-.01.66-.21 1.25-.78.86-.82 2.04-1.95 4.59-1.95 3.64 0 6.6 2.96 6.6 6.6s-2.96 6.6-6.6 6.6c-2.23 0-3.42-.95-4.28-1.65-.62-.5-.95-.75-1.46-.75h-.04c-.3.01-.83.29-1.19.61v6.56zm-9.18 0h7v-6.98c0-.25.08-.48.23-.67.63-.8 1.92-1.66 3.08-1.69 1.35.01 2.19.64 2.92 1.23.78.63 1.45 1.17 2.92 1.17 2.44 0 4.42-1.98 4.42-4.42s-1.98-4.42-4.42-4.42c-1.67 0-2.32.62-3.08 1.34-.63.6-1.41 1.35-2.7 1.38-1.54-.02-2.9-.9-3.32-2.29-.03-.1-.05-.21-.05-.32v-7.06H28.69c-.83 0-1.51.68-1.51 1.51v21.22h7.42c.05-.15.07-.3.07-.46-.01-.41-.21-.66-.78-1.25-.82-.86-1.95-2.04-1.95-4.59 0-3.64 2.96-6.6 6.6-6.6s6.6 2.96 6.6 6.6c0 2.23-.95 3.42-1.65 4.28-.51.64-.76.97-.75 1.5.01.11.06.3.17.52z"/></symbol><symbol viewBox="0 0 102 102" id="icon-rocket-circle" xmlns="http://www.w3.org/2000/svg"><circle fill="#A74DAD" cx="51" cy="51" r="50"/><g fill="#FFF"><path d="M45.64 73.02c-.8 0-1.67-.32-2.25-.87L32.13 61.5c-.77-.73-1.16-2-.91-2.95.18-.69.67-1.18 1.35-1.35l4.92-1.62c.58-.19 1.21.12 1.4.69.19.57-.12 1.19-.7 1.38l-4.83 1.59c.02.21.14.53.3.68l11.26 10.65c.18.17.5.26.7.27l1.29-4.9c.15-.58.76-.94 1.35-.78.59.15.94.75.79 1.33l-1.35 5.1c-.17.66-.67 1.15-1.37 1.34-.21.06-.45.09-.69.09zM33.2 59.29c-.01.01 0 .01 0 0z"/><path d="M50.19 68.83c-.28 0-.55-.1-.76-.3L35.64 55.49c-.4-.37-.45-.98-.13-1.42 1.47-2.03 2.97-4.23 4.56-6.56 3.96-5.8 8.06-11.8 12.34-16.21 5.38-5.54 14.03-6.84 22.59-3.41.26.11.54.33.66.58 3.83 8.18 2.87 17.01-2.45 22.49-4.28 4.4-10.17 8.7-15.88 12.85-2.29 1.67-4.46 3.25-6.46 4.79-.2.15-.44.23-.68.23zM37.86 54.56L50.27 66.3c1.8-1.37 3.73-2.77 5.75-4.24 5.63-4.1 11.45-8.33 15.59-12.6 4.6-4.74 5.46-12.42 2.22-19.67-7.62-2.93-15.17-1.77-19.82 3.02-4.15 4.27-8.2 10.19-12.11 15.92-1.4 2.05-2.73 4-4.04 5.83z"/><path d="M76.41 43.91c-.28 0-.56-.11-.76-.3L59.76 28.57c-.29-.27-.4-.67-.31-1.05.1-.38.39-.68.78-.78 4.55-1.25 9.8-.84 14.77 1.16.26.11.54.33.66.58 2.26 4.84 2.92 10.02 1.83 14.59-.09.38-.38.69-.76.8-.11.02-.21.04-.32.04zM62.79 28.42l12.89 12.19c.39-3.47-.24-7.23-1.85-10.82-3.74-1.44-7.56-1.9-11.04-1.37zM25.11 56.53c-.3 0-.59-.12-.8-.33-.23-.23-.34-.55-.3-.87.86-7.93 2.63-16.45 12.68-17.15 2.14-.16 4.34.45 6.48 1.03 1 .27 2.04.55 3.02.74a1.093 1.093 0 0 1 .7 1.69l-9.51 13.67c-.19.28-.5.45-.84.47l-11.36.76c-.02-.01-.05-.01-.07-.01zm11.35-1.86zm.91-14.34c-.18 0-.36.01-.53.02-7.86.55-9.63 7-10.49 13.91l9.5-.64 8.28-11.91c-.53-.13-1.05-.27-1.56-.41-1.83-.5-3.58-.97-5.2-.97zM49.93 80c-.27 0-.53-.1-.73-.27-.25-.21-.38-.52-.37-.85l.29-11.23c.01-.33.17-.64.44-.84l13.43-9.96c.3-.22.69-.28 1.04-.15.35.13.61.42.7.77.23.96.56 1.97.87 2.95.67 2.08 1.37 4.22 1.31 6.34-.28 9.94-8.83 12.04-16.82 13.23-.05.01-.11.01-.16.01zm1.38-11.76l-.24 9.39c6.96-1.13 13.42-3.16 13.64-10.93.05-1.75-.56-3.63-1.21-5.62-.16-.5-.33-1.01-.48-1.52l-11.71 8.68z"/><path d="M53.81 66.17c-.27 0-.55-.1-.76-.3L38.1 51.88a1.08 1.08 0 0 1-.04-1.54c.42-.44 1.12-.46 1.56-.04l14.95 13.99c.44.41.46 1.11.04 1.54-.22.22-.51.34-.8.34z"/></g></symbol><symbol viewBox="0 0 102 102" id="icon-settings-circle" xmlns="http://www.w3.org/2000/svg"><circle fill="#A74DAD" class="bdst0" cx="51" cy="51" r="50"/><path fill="#fff" class="bdst1" d="M72.07 55.93l-3.3.55c-.33 1.1-.78 2.17-1.32 3.2l1.94 2.73c.82 1.16.69 2.74-.31 3.74l-2.93 2.93a2.906 2.906 0 0 1-3.74.31l-2.72-1.94c-1.02.54-2.09.98-3.2 1.33l-.56 3.3a2.91 2.91 0 0 1-2.87 2.43h-4.14c-1.42 0-2.63-1.02-2.87-2.43l-.55-3.3c-1.07-.33-2.11-.76-3.1-1.28l-2.76 1.96c-.49.36-1.07.54-1.67.54-.78 0-1.5-.31-2.05-.85l-2.93-2.93c-1.01-1-1.14-2.58-.31-3.74l1.93-2.69c-.55-1.02-1-2.09-1.34-3.19l-3.34-.57a2.901 2.901 0 0 1-2.42-2.87v-4.13c0-1.42 1.02-2.63 2.42-2.87l3.26-.55c.33-1.11.77-2.18 1.31-3.21l-1.96-2.76a2.9 2.9 0 0 1 .31-3.74l2.94-2.93c.54-.55 1.28-.85 2.05-.85.61 0 1.2.19 1.69.54l2.7 1.94c1.02-.55 2.09-1 3.19-1.35l.57-3.34c.24-1.4 1.44-2.42 2.87-2.42h4.13c1.42 0 2.63 1.02 2.87 2.42l.55 3.26c1.15.34 2.26.81 3.32 1.37l2.73-1.94c.49-.35 1.07-.54 1.68-.54.78 0 1.5.3 2.05.85l2.92 2.93c1.01 1 1.14 2.58.32 3.74l-1.94 2.72c.54 1.02.98 2.09 1.33 3.2l3.3.56c1.4.24 2.43 1.44 2.41 2.87v4.13c-.03 1.43-1.05 2.64-2.46 2.87zm-.19-7c0-.13-.09-.24-.22-.25l-4.12-.7c-.51-.08-.93-.46-1.06-.97-.37-1.44-.94-2.83-1.71-4.11-.27-.45-.25-1.02.06-1.44l2.43-3.41c.07-.11.06-.24-.03-.33l-2.93-2.93a.268.268 0 0 0-.19-.08c-.05 0-.1.02-.15.05l-3.39 2.43c-.43.31-.99.32-1.44.06a16.11 16.11 0 0 0-4.21-1.73c-.51-.13-.89-.55-.98-1.07l-.69-4.09a.259.259 0 0 0-.26-.22h-4.13c-.13 0-.24.09-.26.22l-.71 4.15c-.09.51-.47.92-.97 1.06-1.44.37-2.83.96-4.1 1.73-.45.26-1.02.25-1.45-.06l-3.39-2.41a.246.246 0 0 0-.15-.05c-.05 0-.12.01-.19.08l-2.93 2.92c-.09.09-.1.24-.03.33l2.44 3.44c.3.42.33.98.07 1.43-.76 1.29-1.31 2.68-1.68 4.12-.13.51-.55.89-1.07.98l-4.09.69c-.13.02-.22.13-.22.25v4.13c0 .13.09.24.22.26l4.15.71c.51.09.92.47 1.06.97.37 1.44.96 2.83 1.73 4.1.27.45.25 1.02-.06 1.45l-2.42 3.39c-.07.11-.06.25.03.33l2.93 2.93c.07.07.15.08.19.08.05 0 .1-.02.15-.05l3.44-2.44c.23-.17.5-.25.77-.25.23 0 .46.06.67.18 1.27.73 2.62 1.29 4.03 1.65.5.13.88.54.97 1.06l.69 4.12c.02.13.13.21.26.21h4.13c.13 0 .24-.09.26-.21l.7-4.12c.08-.51.46-.93.97-1.06 1.44-.37 2.83-.94 4.11-1.71a1.34 1.34 0 0 1 1.44.06l3.41 2.43c.04.03.09.05.15.05.05 0 .12-.01.19-.08l2.93-2.93c.09-.09.1-.24.03-.33l-2.43-3.42c-.31-.43-.32-.99-.06-1.44.77-1.29 1.33-2.67 1.71-4.11.13-.5.54-.88 1.06-.97l4.12-.69c.13-.02.22-.13.22-.25h.01v-4.14zM51 61.14c-5.6 0-10.14-4.55-10.14-10.14 0-5.6 4.55-10.14 10.14-10.14 5.6 0 10.14 4.55 10.14 10.14.01 5.59-4.54 10.14-10.14 10.14zm0-17.64c-4.13 0-7.49 3.36-7.49 7.49 0 4.13 3.36 7.49 7.49 7.49 4.13 0 7.49-3.36 7.49-7.49.01-4.13-3.35-7.49-7.49-7.49z"/></symbol><symbol viewBox="0 0 36.02246 35.9668" id="icon-support" xmlns="http://www.w3.org/2000/svg"><path class="best0" d="M20.438 33.526a.719.719 0 0 1-.106-1.431c1.749-.261 4.167-.906 5.753-2.493 1.901-1.9 3.23-5.04 3.23-7.633v-9.974c0-2.53-1.238-5.336-3.23-7.327s-4.797-3.229-7.326-3.229h-1.463c-2.53 0-5.336 1.238-7.327 3.229S6.74 9.466 6.74 11.995v9.974a.72.72 0 0 1-1.44 0v-9.974C5.3 9.1 6.7 5.9 8.952 3.65 11.201 1.398 14.4 0 17.296 0h1.463c2.896 0 6.095 1.398 8.345 3.65 2.251 2.25 3.65 5.449 3.65 8.345v9.974c0 2.992-1.467 6.468-3.65 8.65-1.475 1.477-3.743 2.48-6.56 2.9a.67.67 0 0 1-.107.007z"/><path class="best0" d="M22.193 16.275a1.493 1.493 0 0 1-1.492-1.49c0-.824.67-1.493 1.492-1.493.823 0 1.492.669 1.492 1.492 0 .822-.67 1.491-1.492 1.491zm0-1.544a.053.053 0 0 0-.052.053h.104l-.052-.053zm-8.332 1.544a1.493 1.493 0 0 1 0-2.983c.823 0 1.492.669 1.492 1.492 0 .822-.67 1.491-1.492 1.491zm0-1.544a.052.052 0 0 0-.051.053h.103l-.052-.053zM18.01 24.987c-2.545 0-4.723-1.424-5.296-3.463a.72.72 0 0 1 1.387-.388c.392 1.397 2.037 2.412 3.91 2.412s3.518-1.015 3.912-2.413a.721.721 0 0 1 1.387.39c-.575 2.038-2.753 3.462-5.3 3.462zm12.342-2.141a.72.72 0 0 1-.054-1.438c2.402-.184 4.285-2.365 4.285-4.965 0-2.6-1.883-4.78-4.285-4.965a.72.72 0 0 1-.663-.773.717.717 0 0 1 .772-.663c3.15.241 5.615 3.053 5.615 6.401s-2.465 6.16-5.615 6.4c-.018.003-.037.003-.055.003zm-24.681 0c-.019 0-.037 0-.056-.002C2.465 22.603 0 19.79 0 16.444c0-3.35 2.466-6.16 5.615-6.402a.714.714 0 0 1 .773.663.72.72 0 0 1-.663.773c-2.403.184-4.286 2.365-4.286 4.965 0 2.6 1.883 4.78 4.286 4.965a.72.72 0 0 1-.054 1.438zM18.01 35.967c-1.729 0-3.135-1.406-3.135-3.136s1.406-3.136 3.136-3.136 3.136 1.407 3.136 3.136-1.407 3.136-3.136 3.136zm0-4.832c-.935 0-1.696.76-1.696 1.696a1.698 1.698 0 0 0 3.394 0c0-.935-.762-1.696-1.697-1.696z"/><path class="best0" d="M5.807 11.77a.719.719 0 0 1-.143-1.424 11.328 11.328 0 0 0 7.703-5.719.717.717 0 0 1 .535-.37.716.716 0 0 1 .616.213 11.263 11.263 0 0 0 8.158 3.459c1.959 0 3.89-.508 5.587-1.469a.72.72 0 1 1 .709 1.254 12.806 12.806 0 0 1-6.296 1.654 12.675 12.675 0 0 1-8.519-3.248 12.75 12.75 0 0 1-8.206 5.636.66.66 0 0 1-.144.015z"/></symbol><symbol viewBox="0 0 102 102" id="icon-support-circle" xmlns="http://www.w3.org/2000/svg"><circle fill="#A74DAD" class="bfst0" cx="51" cy="51" r="50"/><path fill="#fff" class="bfst1" d="M54.64 74.34c-.53 0-.99-.38-1.07-.92-.09-.59.32-1.14.91-1.23 2.62-.39 6.25-1.36 8.62-3.74 2.85-2.85 4.84-7.57 4.84-11.46V42.01c0-3.8-1.85-8.01-4.84-11s-7.19-4.85-10.98-4.85h-2.19c-3.79 0-8 1.86-10.98 4.85s-4.84 7.2-4.84 11v14.97c0 .6-.48 1.08-1.08 1.08-.6 0-1.08-.48-1.08-1.08V42.01c0-4.35 2.1-9.15 5.47-12.53C40.79 26.1 45.59 24 49.93 24h2.19c4.34 0 9.14 2.1 12.51 5.48 3.38 3.38 5.47 8.18 5.47 12.53v14.97c0 4.49-2.2 9.71-5.47 12.99-2.21 2.22-5.61 3.72-9.83 4.35-.06.01-.11.02-.16.02z"/><path fill="#fff" class="bfst1" d="M57.27 48.44c-1.23 0-2.24-1-2.24-2.24 0-1.24 1-2.24 2.24-2.24 1.23 0 2.24 1 2.24 2.24-.01 1.23-1.01 2.24-2.24 2.24zm0-2.32c-.04 0-.08.04-.08.08h.16l-.08-.08zm-12.49 2.32c-1.23 0-2.24-1-2.24-2.24 0-1.24 1-2.24 2.24-2.24 1.23 0 2.24 1 2.24 2.24-.01 1.23-1.01 2.24-2.24 2.24zm0-2.32c-.04 0-.08.04-.08.08h.16l-.08-.08zM51 61.52c-3.82 0-7.08-2.14-7.94-5.2-.16-.57.17-1.17.75-1.33.58-.16 1.17.17 1.33.75.59 2.1 3.05 3.62 5.86 3.62s5.27-1.52 5.86-3.62c.16-.57.75-.9 1.33-.75.57.16.91.76.75 1.33-.86 3.06-4.12 5.2-7.94 5.2zm18.5-3.22c-.56 0-1.03-.43-1.07-1-.05-.6.4-1.11.99-1.16 3.6-.28 6.42-3.55 6.42-7.45 0-3.9-2.82-7.18-6.42-7.46-.59-.05-1.04-.56-.99-1.16.05-.6.57-1.05 1.16-1 4.71.37 8.41 4.59 8.41 9.62 0 5.03-3.7 9.25-8.42 9.61h-.08zm-37 0h-.08C27.7 57.94 24 53.71 24 48.69c0-5.03 3.7-9.25 8.42-9.61.6-.06 1.11.4 1.16 1 .05.6-.4 1.11-.99 1.16-3.6.28-6.42 3.55-6.42 7.46 0 3.9 2.82 7.18 6.42 7.45.59.05 1.04.56.99 1.16-.05.56-.52.99-1.08.99zM51 78c-2.59 0-4.7-2.11-4.7-4.71s2.11-4.71 4.7-4.71 4.7 2.11 4.7 4.71S53.59 78 51 78zm0-7.25c-1.4 0-2.54 1.14-2.54 2.55s1.14 2.55 2.54 2.55 2.54-1.14 2.54-2.55-1.14-2.55-2.54-2.55z"/><path fill="#fff" class="bfst1" d="M32.7 41.67c-.5 0-.95-.35-1.06-.87-.12-.59.26-1.16.84-1.27 4.93-1.01 9.14-4.14 11.55-8.59.16-.3.46-.51.8-.55.34-.05.68.07.92.32 3.24 3.35 7.58 5.19 12.23 5.19 2.94 0 5.83-.76 8.38-2.21a1.08 1.08 0 0 1 1.06 1.88 19.232 19.232 0 0 1-9.44 2.48c-4.77 0-9.25-1.72-12.77-4.88a19.09 19.09 0 0 1-12.3 8.46c-.06.04-.13.04-.21.04z"/></symbol></svg>