<?xml version="1.0" encoding="utf-8"?>
<!-- Generator: Adobe Illustrator 21.1.0, SVG Export Plug-In . SVG Version: 6.00 Build 0)  -->
<svg version="1.1" id="Слой_1" xmlns="http://www.w3.org/2000/svg" xmlns:xlink="http://www.w3.org/1999/xlink" x="0px" y="0px"
	 viewBox="0 0 101 88.92529" style="enable-background:new 0 0 101 88.92529;" xml:space="preserve">
<style type="text/css">
	.st0{fill:#F1AF00;}
	.st1{fill:#FFFFFF;}
	.st2{fill:#5D5D5D;}
</style>
<g>
	<rect x="3" y="3" class="st0" width="95" height="59.18164"/>
	<path class="st1" d="M83.18749,85.92529H60.52083C58.03437,85.92529,56,83.89091,56,81.40446V39.52083
		C56,37.03437,58.03437,35,60.52083,35h22.66666c2.48646,0,4.52084,2.03437,4.52084,4.52083v41.88363
		C87.70833,83.89091,85.67395,85.92529,83.18749,85.92529z"/>
	<path class="st2" d="M60.60791,88.92529c-4.19482,0-7.60791-3.41309-7.60791-7.6084V39.53418
		c0-4.19531,3.41309-7.6084,7.60791-7.6084h22.41943c4.19531,0,7.6084,3.41309,7.6084,7.6084v22.64746H98V3H3v59.18164h41
		c1.18652,0,2.0835,0.89697,2.0835,2V75c0,1.10303-0.89697,2-2,2h-18.1665c-0.82715,0-1.5-0.67285-1.5-1.5s0.67285-1.5,1.5-1.5
		h16.91634v-8.81836H1.5c-0.82715,0-1.5-0.67285-1.5-1.5V1.5C0,0.67285,0.67285,0,1.5,0h98c0.82715,0,1.5,0.67285,1.5,1.5v62.18164
		c0,0.82715-0.67285,1.5-1.5,1.5h-8.86426v16.13525c0,4.19531-3.41309,7.6084-7.6084,7.6084H60.60791z M60.60791,34.92578
		c-2.54102,0-4.60791,2.06738-4.60791,4.6084v41.78271c0,2.54102,2.06689,4.6084,4.60791,4.6084h22.41943
		c2.54102,0,4.6084-2.06738,4.6084-4.6084V39.53418c0-2.54102-2.06738-4.6084-4.6084-4.6084H60.60791z M71.81787,80.44287
		c-0.77051,0-1.39746-0.62695-1.39746-1.39746s0.62695-1.39746,1.39746-1.39746s1.39746,0.62695,1.39746,1.39746
		S72.58838,80.44287,71.81787,80.44287z"/>
</g>
</svg>
